<svg width="100" height="100" viewBox="0 0 100 100" fill="none" xmlns="http://www.w3.org/2000/svg">
<g clip-path="url(#clip0_146_3537)">
<rect width="100" height="100" rx="50" fill="white"/>
<path d="M50 100H48.3406L58.7562 72.0875H72.9156C75.4219 72.0875 77.9125 70.0031 78.7438 67.9219L90.0062 37.5031C91.6656 32.5063 88.7531 28.3406 83.7562 28.3406H64.1594L38.7531 98.75C16.2437 93.3313 0 73.75 0 50.0031C0 27.0875 15.4125 7.9125 36.6688 1.6625L27.0813 28.3375L10.8375 72.0875H21.2531L34.5844 34.9938H42.4937L29.1625 72.0875H39.5781L52.0781 37.5C53.7375 32.5031 51.2469 28.3375 45.8281 28.3375H37.4938L47.9094 0H49.9938C77.5 0 99.9937 22.4937 99.9937 50C99.9937 77.5062 77.5 100 49.9938 100H50ZM80.4187 34.5875H72.4938L61.2469 65.0062H69.1719L80.4187 34.5875Z" fill="#0096D6"/>
</g>
<defs>
<clipPath id="clip0_146_3537">
<rect width="100" height="100" rx="50" fill="white"/>
</clipPath>
</defs>
</svg>
