<svg width="111" height="110" viewBox="0 0 111 110" fill="none" xmlns="http://www.w3.org/2000/svg">
<g clip-path="url(#clip0_146_3532)">
<path d="M21.389 73.8332V76.8889H0V73.8332H21.389ZM54.8148 73.8332C52.6693 75.8058 49.8589 76.8969 46.9444 76.8887L24.4445 76.8586V73.8332H54.8148ZM86.6177 73.8332L85.5508 76.8887L84.4933 73.8332H86.6177ZM76.389 73.8332V76.8889H61.1112V73.8332H76.389ZM110 73.8332V76.8889H94.7222V73.8332H110ZM58.2757 68.0002C58.0133 69.072 57.5994 70.1009 57.0464 71.0557H24.4445V68.0002H58.2757ZM88.6654 68.0002L87.5931 71.0559H83.5182L82.4456 68.0002H88.6654ZM76.389 68.0002V71.0557H61.1112V68.0002H76.389ZM110 68.0002V71.0557H94.7222V68.0002H110ZM21.389 68.0002V71.0557H0V68.0002H21.389ZM15.2775 62.1666V65.2223H6.11102V62.1666H15.2775ZM39.722 62.1666V65.2223H30.5553V62.1666H39.722ZM58.2022 62.1666C58.473 63.1626 58.6104 64.1901 58.6109 65.2223H48.3334V62.1666H58.2022ZM90.7133 62.1666L89.6405 65.2223H81.4703L80.3973 62.1666H90.7133ZM76.3888 62.1666V65.2223H67.222V62.1666H76.3888ZM103.889 62.1666V65.2223H94.722V62.1666H103.889ZM15.2775 56.3333V59.3888H6.11102V56.3333H15.2775ZM76.3888 56.3333V59.3888H67.222V56.3333H76.3888ZM103.889 56.3333V59.3888H94.722V56.3333H103.889ZM54.494 56.3333C55.5117 57.1989 56.3737 58.2323 57.0427 59.3886H30.5555V56.3331L54.494 56.3333ZM92.7611 56.3333L91.6887 59.3888H79.4221L78.3496 56.3331L92.7611 56.3333ZM84.6963 50.5001L85.5553 52.97L86.414 50.5001H103.889V53.5556H94.7225V50.7483L93.7363 53.5558H77.3747L76.3888 50.7478V53.5558H67.2225V50.5001H84.6963ZM30.5553 50.5001H57.0432C56.3741 51.6566 55.512 52.69 54.4943 53.5556H30.5555L30.5553 50.5001ZM15.2775 50.5001V53.5556H6.11102V50.4999L15.2775 50.5001ZM15.2775 44.6667V47.7222H6.11102V44.6667H15.2775ZM39.722 44.6667V47.7222H30.5553V44.6667H39.722ZM58.6111 44.6667C58.6106 45.6988 58.4731 46.7262 58.2022 47.7222H48.3334V44.6667H58.6111ZM82.6678 44.6667L83.7304 47.7222H67.2225V44.6667H82.6678ZM103.889 44.6667V47.7222H87.3804L88.4428 44.6667H103.889ZM21.3886 38.8332V41.889H0V38.833L21.3886 38.8332ZM57.0462 38.8332C57.5992 39.7881 58.0131 40.817 58.2755 41.8887H24.4441V38.8332H57.0462ZM110 38.8332V41.8887H89.4087L90.4713 38.8332H110ZM80.6392 38.8332L81.7019 41.8887H61.111V38.8332H80.6392ZM21.3892 33.0002V36.0555H0V33L21.3892 33.0002ZM46.9444 33C49.8581 32.996 52.6671 34.0865 54.8148 36.0555H24.4445V33H46.9444ZM110 33V36.0557H91.4375L92.5001 33.0002L110 33ZM78.6113 33L79.6737 36.0557H61.1112V33.0002L78.6113 33Z" fill="#045FFD"/>
</g>
<defs>
<clipPath id="clip0_146_3532">
<rect width="110" height="44.043" fill="white" transform="translate(0 33)"/>
</clipPath>
</defs>
</svg>
