<svg width="151" height="150" viewBox="0 0 151 150" fill="none" xmlns="http://www.w3.org/2000/svg">
<g clip-path="url(#clip0_146_3525)">
<path d="M149.87 73.3033V70.6676H146.597V66.5701L146.487 66.604L143.412 67.5447L143.352 67.5631V70.6678H138.499V68.9382C138.499 68.1328 138.68 67.5165 139.034 67.1055C139.387 66.6994 139.891 66.493 140.534 66.493C140.996 66.493 141.475 66.6019 141.956 66.8166L142.077 66.8705V64.0948L142.02 64.0739C141.571 63.9124 140.96 63.8311 140.202 63.8311C139.248 63.8311 138.38 64.0388 137.624 64.4505C136.867 64.8629 136.271 65.4515 135.854 66.1998C135.439 66.9473 135.228 67.8107 135.228 68.7661V70.6676H132.949V73.3033H135.228V84.407H138.499V73.3033H143.352V80.3595C143.352 83.2656 144.722 84.7383 147.426 84.7383C147.87 84.7383 148.338 84.6862 148.815 84.5843C149.301 84.4796 149.632 84.3751 149.827 84.2635L149.87 84.2379V81.5779L149.737 81.6659C149.559 81.7842 149.338 81.8809 149.079 81.9528C148.819 82.026 148.601 82.0627 148.433 82.0627C147.799 82.0627 147.331 81.8921 147.04 81.5553C146.746 81.2155 146.597 80.6212 146.597 79.7899V73.3033H149.87ZM125.642 82.0631C124.455 82.0631 123.519 81.6694 122.859 80.8937C122.195 80.1142 121.859 79.0028 121.859 77.5907C121.859 76.1338 122.195 74.9936 122.859 74.2003C123.519 73.4122 124.447 73.0122 125.616 73.0122C126.75 73.0122 127.653 73.3942 128.3 74.1482C128.95 74.9062 129.28 76.0373 129.28 77.5111C129.28 79.0031 128.97 80.1491 128.358 80.9158C127.751 81.6766 126.837 82.0631 125.642 82.0631ZM125.788 70.3366C123.522 70.3366 121.723 71.0005 120.44 72.3098C119.158 73.6192 118.508 75.4313 118.508 77.6961C118.508 79.8473 119.142 81.5776 120.394 82.8382C121.646 84.0992 123.349 84.738 125.457 84.738C127.653 84.738 129.416 84.0648 130.699 82.7374C131.981 81.4115 132.631 79.6165 132.631 77.4046C132.631 75.2198 132.021 73.4766 130.818 72.2244C129.615 70.9716 127.922 70.3366 125.788 70.3366ZM113.233 70.3366C111.691 70.3366 110.417 70.7308 109.443 71.508C108.463 72.2899 107.966 73.3153 107.966 74.5562C107.966 75.2012 108.073 75.7742 108.284 76.2601C108.497 76.7477 108.825 77.177 109.262 77.5372C109.695 77.8946 110.364 78.2689 111.251 78.6498C111.996 78.9564 112.552 79.2158 112.905 79.4202C113.25 79.6206 113.495 79.8219 113.633 80.0181C113.767 80.21 113.835 80.4727 113.835 80.7969C113.835 81.72 113.144 82.1691 111.722 82.1691C111.194 82.1691 110.592 82.0589 109.933 81.8418C109.279 81.6279 108.661 81.3146 108.102 80.913L107.966 80.8156V83.9655L108.016 83.9887C108.479 84.2024 109.062 84.3826 109.75 84.5244C110.437 84.6663 111.061 84.7385 111.603 84.7385C113.275 84.7385 114.622 84.3425 115.604 83.5606C116.593 82.7734 117.094 81.7237 117.094 80.44C117.094 79.5138 116.824 78.7197 116.293 78.0792C115.765 77.4439 114.848 76.8606 113.569 76.3451C112.551 75.9362 111.898 75.5968 111.629 75.3363C111.369 75.0846 111.238 74.7287 111.238 74.278C111.238 73.8784 111.4 73.5583 111.734 73.2991C112.071 73.0386 112.539 72.9061 113.127 72.9061C113.672 72.9061 114.229 72.9922 114.784 73.1609C115.338 73.3297 115.825 73.5557 116.232 73.8322L116.365 73.9235V70.9355L116.314 70.9135C115.939 70.7527 115.445 70.6151 114.844 70.5035C114.246 70.3926 113.704 70.3366 113.233 70.3366ZM99.4369 82.0631C98.2497 82.0631 97.3131 81.6694 96.6535 80.8937C95.9895 80.1142 95.6537 79.0031 95.6537 77.5907C95.6537 76.1338 95.9899 74.9936 96.6542 74.2003C97.3139 73.4122 98.241 73.0122 99.4107 73.0122C100.545 73.0122 101.448 73.3942 102.095 74.1482C102.745 74.9062 103.075 76.0373 103.075 77.5111C103.075 79.0031 102.764 80.1491 102.153 80.9158C101.545 81.6766 100.632 82.0631 99.4369 82.0631ZM99.5827 70.3366C97.3166 70.3366 95.517 71.0005 94.2347 72.3098C92.9525 73.6192 92.302 75.4313 92.302 77.6961C92.302 79.8482 92.937 81.5776 94.1887 82.8382C95.4405 84.0992 97.1438 84.738 99.2513 84.738C101.447 84.738 103.211 84.0648 104.494 82.7374C105.776 81.4115 106.426 79.6165 106.426 77.4046C106.426 75.2198 105.816 73.4766 104.613 72.2244C103.409 70.9716 101.717 70.3366 99.5827 70.3366ZM87.3356 73.047V70.6676H84.1038V84.4067H87.3356V77.3786C87.3356 76.1836 87.6066 75.2018 88.1413 74.4602C88.6691 73.7275 89.3726 73.3562 90.2314 73.3562C90.5225 73.3562 90.8493 73.4042 91.2032 73.4992C91.5535 73.5935 91.8072 73.696 91.9568 73.8039L92.0926 73.9024V70.6441L92.0403 70.6217C91.7393 70.4938 91.3135 70.4293 90.7748 70.4293C89.9626 70.4293 89.2359 70.6902 88.6133 71.204C88.0669 71.6556 87.672 72.2748 87.37 73.047H87.3356ZM78.3162 70.3366C76.8335 70.3366 75.511 70.6546 74.3861 71.2813C73.2589 71.9095 72.3872 72.8063 71.7941 73.9467C71.2036 75.0844 70.9038 76.4132 70.9038 77.8952C70.9038 79.1933 71.1944 80.3846 71.769 81.4345C72.3438 82.4862 73.1574 83.3089 74.1874 83.8796C75.2158 84.4495 76.4045 84.7384 77.7206 84.7384C79.2565 84.7384 80.5678 84.4313 81.6192 83.8258L81.6617 83.8014V80.8405L81.5258 80.9397C81.0496 81.2866 80.5174 81.5635 79.9447 81.763C79.3735 81.9624 78.8527 82.0631 78.396 82.0631C77.1279 82.0631 76.1099 81.6663 75.3709 80.884C74.6304 80.1007 74.2549 79.0008 74.2549 77.6167C74.2549 76.2239 74.6465 75.0957 75.4182 74.2632C76.1876 73.4332 77.2075 73.0122 78.4494 73.0122C79.5116 73.0122 80.5468 73.3719 81.5261 74.0823L81.6617 74.1807V71.0609L81.6179 71.0363C81.2493 70.83 80.7467 70.6596 80.1227 70.5305C79.5014 70.4016 78.8936 70.3366 78.3162 70.3366ZM68.6779 70.6678H65.4461V84.4067H68.6779V70.6678ZM67.0951 64.8149C66.5631 64.8149 66.0992 64.9959 65.7181 65.3548C65.3353 65.7146 65.1412 66.1677 65.1412 66.7023C65.1412 67.2286 65.333 67.6734 65.7121 68.0237C66.0888 68.3729 66.5542 68.5499 67.0952 68.5499C67.6361 68.5499 68.1032 68.3729 68.4844 68.0242C68.868 67.6734 69.0625 67.2287 69.0625 66.7023C69.0625 66.1864 68.8732 65.7379 68.5002 65.3693C68.1274 65.0013 67.6545 64.8149 67.0951 64.8149ZM59.0314 69.6541V84.4067H62.3297V65.2355H57.7648L51.9625 79.4753L46.3317 65.2355H41.5809V84.4065H44.6804V69.6526H44.7868L50.7328 84.4067H53.0718L58.925 69.6541H59.0314Z" fill="#706D6E"/>
<path d="M15.2033 74.0326H-0.000244141V58.8291H15.2033V74.0326Z" fill="#F1511B"/>
<path d="M31.9897 74.0326H16.7865V58.8291H31.9897V74.0326Z" fill="#80CC28"/>
<path d="M15.2028 90.8244H-0.000244141V75.6211H15.2028V90.8244Z" fill="#00ADEF"/>
<path d="M31.9897 90.8244H16.7865V75.6211H31.9897V90.8244Z" fill="#FBBC09"/>
</g>
<defs>
<clipPath id="clip0_146_3525">
<rect width="150" height="43.9024" fill="white" transform="translate(0 53.333)"/>
</clipPath>
</defs>
</svg>
