<svg width="150" height="150" viewBox="0 0 150 150" fill="none" xmlns="http://www.w3.org/2000/svg">
<path d="M64.9071 77.8941H74.6723L69.5079 69.5855L60.0298 84.6078H55.7161L67.245 66.5632C67.498 66.1983 67.8365 65.9009 68.231 65.6971C68.6255 65.4932 69.0639 65.389 69.5079 65.3937C70.4044 65.3937 71.2399 65.8191 71.7251 66.5328L83.2985 84.6078H78.9849L76.9505 81.2503H67.0622L64.9071 77.8941ZM109.714 81.2503V65.5765H106.054V82.7855C106.054 83.2566 106.237 83.7125 106.586 84.0617C106.935 84.4109 107.406 84.6078 107.923 84.6078H124.615L126.773 81.2503H109.714ZM49.1548 78.4414C52.7091 78.4414 55.5954 75.5714 55.5954 72.0171C55.5954 68.4628 52.7102 65.5765 49.1548 65.5765H33.1411V84.6089H36.8009V68.9328H48.9122C50.6138 68.9328 51.9802 70.3156 51.9802 72.016C51.9802 73.7164 50.6126 75.0992 48.9122 75.0992L38.5927 75.0839L49.5192 84.6078H54.8372L47.4848 78.4402L49.1548 78.4414ZM10.6165 84.6078C5.36296 84.6078 1.09851 80.355 1.09851 75.0992C1.09851 69.8433 5.36179 65.5753 10.6165 65.5753H21.6778C26.9337 65.5753 31.1946 69.8445 31.1946 75.0992C31.1946 80.3539 26.9337 84.6078 21.6778 84.6078H10.6165ZM21.4317 81.2503C22.2403 81.2516 23.0413 81.0934 23.7887 80.7848C24.5362 80.4763 25.2155 80.0234 25.7877 79.4521C26.36 78.8808 26.814 78.2023 27.1239 77.4554C27.4337 76.7085 27.5933 75.9078 27.5934 75.0992C27.5939 74.2896 27.4349 73.4879 27.1255 72.7398C26.816 71.9916 26.3623 71.3118 25.7901 70.7391C25.2179 70.1664 24.5385 69.712 23.7907 69.4018C23.0429 69.0917 22.2413 68.9319 21.4317 68.9316H10.8602C9.22562 68.9328 7.65844 69.5833 6.50337 70.7399C5.34829 71.8965 4.69992 73.4646 4.70086 75.0992C4.70101 75.9076 4.86049 76.7081 5.17018 77.4548C5.47988 78.2016 5.93371 78.88 6.50573 79.4513C7.07776 80.0225 7.75677 80.4755 8.50394 80.7842C9.25111 81.0929 10.0518 81.2513 10.8602 81.2503H21.4317ZM90.9403 84.6078C85.6856 84.6078 81.4177 80.355 81.4177 75.0992C81.4177 69.8433 85.6856 65.5753 90.9403 65.5753H104.079L101.936 68.9316H91.1841C89.5485 68.9325 87.9802 69.5826 86.8235 70.739C85.6669 71.8954 85.0166 73.4636 85.0153 75.0992C85.0153 78.5011 87.7809 81.2503 91.1841 81.2503H104.383L102.227 84.6078H90.9403ZM135.702 81.2503C134.362 81.251 133.057 80.8135 131.988 80.0046C130.919 79.1956 130.143 78.0595 129.779 76.7691H145.423L147.579 73.4128H129.779C130.146 72.124 130.922 70.9896 131.991 70.1812C133.06 69.3727 134.362 68.9341 135.702 68.9316H146.44L148.613 65.5753H135.459C130.204 65.5753 125.936 69.8445 125.936 75.0992C125.936 80.3539 130.204 84.6078 135.459 84.6078H146.745L148.902 81.2503H135.702Z" fill="#EA1B22"/>
</svg>
