<svg width="30" height="30" viewBox="0 0 30 30" fill="none" xmlns="http://www.w3.org/2000/svg">
<g clip-path="url(#clip0_279_4417)">
<path d="M12.1814 1.12468C11.7302 1.35905 11.4665 1.70475 11.3317 2.22038C11.2556 2.51921 11.2439 2.86491 11.2614 4.17741C11.279 5.69499 11.2849 5.78288 11.4138 6.06413C11.6364 6.55046 12.029 6.88444 12.5564 7.05436C12.6442 7.08366 12.656 7.16569 12.656 7.72233V8.361L12.404 8.46061C11.8474 8.67155 11.4841 9.08171 11.3317 9.66179C11.2556 9.96061 11.2439 10.3122 11.2614 11.6188C11.279 13.1481 11.2849 13.2243 11.4196 13.5173C11.6189 13.9626 12.0583 14.3434 12.5564 14.4958C12.6442 14.5251 12.656 14.6071 12.656 15.1637V15.7966L12.3454 15.9255C11.947 16.0895 11.6247 16.4059 11.4314 16.8161L11.279 17.1383V18.8962V20.654L11.4314 20.9762C11.6013 21.3395 11.8767 21.6325 12.2165 21.8141C12.445 21.943 12.5095 21.943 15.7028 21.9723L18.9548 22.0016V23.5251V25.0485L18.4743 25.0661L17.988 25.0837V24.2106C17.988 23.4372 17.9763 23.3258 17.8825 23.2438C17.7419 23.1149 17.5603 23.1208 17.4431 23.2497C17.3669 23.3317 17.3435 23.5192 17.3317 24.1989L17.3142 25.0485L16.7868 25.0778C16.4997 25.0954 16.2009 25.1423 16.1364 25.1774C15.9607 25.277 15.7087 25.5876 15.6677 25.7575L15.6325 25.8981H12.281C10.1306 25.8981 8.85909 25.9216 8.71261 25.9626C8.58956 25.9919 8.3962 26.1032 8.27901 26.2087C7.59932 26.8063 7.87472 27.9372 8.75948 28.1774C8.91768 28.2184 10.0954 28.2419 12.3044 28.2419H15.6208L15.6911 28.4411C15.7849 28.6989 16.113 28.986 16.3591 29.0329C16.4646 29.0505 17.4899 29.0622 18.6384 29.0505L20.7243 29.0329L20.9353 28.8688C21.2927 28.5993 21.3278 28.4762 21.3278 27.4801V26.6012H24.7146C28.0368 26.6012 28.1071 26.6012 28.2302 26.7184C28.406 26.8883 28.4411 27.0817 28.3356 27.2985C28.2829 27.3981 28.2302 27.486 28.2243 27.4919C28.2185 27.4977 26.9646 27.5212 25.4411 27.5387C22.781 27.568 22.6638 27.5739 22.5817 27.6794C22.4646 27.8376 22.4763 27.9841 22.6169 28.1247C22.7341 28.2419 22.7868 28.2477 25.4763 28.2301C28.1189 28.2126 28.2185 28.2067 28.447 28.0895C28.9978 27.8024 29.2204 27.0817 28.9333 26.5426C28.8396 26.3669 28.6931 26.2204 28.5056 26.1032L28.2243 25.9274L24.7849 25.9098L21.3513 25.8923L21.2458 25.6637C21.1872 25.5348 21.0466 25.3591 20.9353 25.2653C20.7419 25.1247 20.6657 25.1071 20.1735 25.0895L19.6286 25.0661V23.5544V22.0368L21.9899 22.0192C24.3044 22.0016 24.3513 22.0016 24.6384 21.8669C24.9899 21.7087 25.3298 21.3864 25.5056 21.0641C25.6286 20.8415 25.6345 20.7477 25.6521 19.0251C25.6696 17.4899 25.6579 17.1735 25.5759 16.9333C25.4411 16.529 25.0954 16.1657 24.6735 15.9723L24.3161 15.8141V15.1813V14.5485L24.5915 14.443C24.9255 14.3141 25.3357 13.9508 25.5056 13.6227C25.6286 13.4001 25.6345 13.3063 25.6521 11.5837C25.6696 10.0016 25.6579 9.73796 25.57 9.47429C25.4411 9.08757 24.9782 8.6071 24.6091 8.48405L24.3454 8.39616L24.3278 7.75163L24.3103 7.1071L24.5915 7.00163C24.9255 6.87272 25.3357 6.50944 25.5056 6.18132C25.6286 5.9528 25.6345 5.88249 25.6345 4.01335C25.6345 2.26139 25.6228 2.06218 25.529 1.88639C25.3474 1.55241 25.0017 1.21843 24.697 1.0778L24.404 0.937176H18.4743H12.5505L12.1814 1.12468ZM24.5739 1.78093C24.9899 2.09733 25.0192 2.22624 25.0192 4.00163C25.0192 5.28483 25.0017 5.6071 24.9314 5.78288C24.8083 6.07585 24.6853 6.20475 24.404 6.33366C24.1814 6.43913 23.8767 6.44499 18.4743 6.44499C14.5896 6.44499 12.7263 6.42741 12.6149 6.38054C12.5271 6.35124 12.3747 6.25163 12.2868 6.16374C11.9587 5.85319 11.9528 5.82975 11.9528 4.00163C11.9528 2.38444 11.9587 2.30827 12.0759 2.10905C12.1462 1.99772 12.2458 1.86882 12.2985 1.8278C12.6032 1.58171 12.445 1.58757 18.5505 1.59929L24.3571 1.611L24.5739 1.78093ZM23.6599 7.74577L23.6774 8.37858H18.486H13.3005V7.73405V7.08952L18.4743 7.10124L23.6423 7.11882L23.6599 7.74577ZM24.404 9.13444C24.6853 9.26335 24.8083 9.39225 24.9314 9.68522C25.0017 9.861 25.0192 10.1833 25.0192 11.4665C25.0192 13.2419 24.9899 13.3708 24.5739 13.6872L24.3571 13.8571H18.486H12.6208L12.404 13.7106C12.2868 13.6344 12.1403 13.4704 12.0759 13.3532C11.9587 13.1481 11.9528 13.0426 11.9528 11.4606C11.9528 10.1247 11.9704 9.74382 12.0349 9.62077C12.1403 9.41569 12.4099 9.16374 12.5974 9.08757C12.6911 9.05241 14.8122 9.02897 18.4567 9.02897C23.8767 9.02311 24.1814 9.02897 24.404 9.13444ZM23.6599 15.1872L23.6774 15.82H18.486H13.3005V15.1755V14.5309L18.4743 14.5426L23.6423 14.5602L23.6599 15.1872ZM24.2692 16.5231C24.5739 16.611 24.82 16.8337 24.9314 17.1266C25.0134 17.3434 25.0251 17.613 25.0075 19.0251L24.9899 20.6716L24.8083 20.9001C24.4392 21.363 24.9255 21.3278 18.4567 21.3278H12.6853L12.4509 21.193C12.322 21.1169 12.1638 20.9587 12.0876 20.8298C11.9587 20.6012 11.9528 20.5485 11.9528 18.943C11.9528 17.9118 11.9763 17.2321 12.0173 17.1266C12.1052 16.8923 12.2985 16.6989 12.5681 16.5758C12.7907 16.4704 13.0837 16.4645 18.4274 16.4645C22.1189 16.4645 24.1286 16.488 24.2692 16.5231ZM20.5661 25.8395C20.6774 25.9508 20.6833 26.0329 20.6833 27.0817C20.6833 28.0426 20.6716 28.2184 20.5837 28.3122C20.4958 28.4118 20.3552 28.4176 18.4802 28.4176C16.7341 28.4176 16.4587 28.4059 16.3825 28.3239C16.3005 28.2477 16.2888 28.0485 16.2888 27.07C16.2888 25.9333 16.2946 25.904 16.4177 25.8161C16.529 25.7341 16.8278 25.7223 18.4978 25.7223C20.3728 25.7223 20.4548 25.7282 20.5661 25.8395ZM15.5857 27.07V27.5387H12.1931H8.79464L8.67745 27.3864C8.51339 27.1755 8.51925 26.9235 8.70089 26.7477L8.84151 26.6012H12.2165H15.5857V27.07Z" fill="black"/>
<path d="M13.2124 2.95898C13.1304 3.03516 13.0659 3.12891 13.0659 3.16406C13.0659 3.19922 13.1304 3.29297 13.2124 3.36914C13.3237 3.48633 13.4116 3.51562 13.6519 3.51562C13.8921 3.51562 13.98 3.48633 14.0913 3.36914C14.1733 3.29297 14.2378 3.19922 14.2378 3.16406C14.2378 3.12891 14.1733 3.03516 14.0913 2.95898C13.98 2.8418 13.8921 2.8125 13.6519 2.8125C13.4116 2.8125 13.3237 2.8418 13.2124 2.95898Z" fill="black"/>
<path d="M14.8942 2.90601C14.7125 3.03491 14.7184 3.3103 14.9118 3.43335C15.111 3.56226 15.6852 3.52124 15.7965 3.3689C15.9137 3.21655 15.8961 3.06421 15.7614 2.92944C15.6149 2.78296 15.0934 2.76538 14.8942 2.90601Z" fill="black"/>
<path d="M16.5993 2.87085C16.3474 2.97046 16.3591 3.36304 16.6228 3.46264C16.8396 3.54468 17.2439 3.5271 17.3904 3.42163C17.4724 3.36304 17.5193 3.26929 17.5193 3.16382C17.5193 3.05835 17.4724 2.9646 17.3904 2.906C17.2497 2.80639 16.8103 2.78882 16.5993 2.87085Z" fill="black"/>
<path d="M19.3356 2.88248C18.6266 3.08169 18.2809 3.92544 18.6383 4.57583C18.9957 5.22037 19.9039 5.36685 20.4723 4.8688C20.6598 4.69888 20.818 4.32388 20.818 4.01333C20.8238 3.48013 20.4723 3.01724 19.9508 2.87662C19.6754 2.80044 19.6109 2.80044 19.3356 2.88248ZM20.0094 3.66177C20.3258 3.97232 20.1031 4.51138 19.6578 4.51138C19.3707 4.51138 19.1598 4.30044 19.1598 4.01333C19.1598 3.56802 19.6988 3.34537 20.0094 3.66177Z" fill="black"/>
<path d="M22.3179 2.90039C21.9839 3.00586 21.6558 3.35156 21.562 3.69727C21.3569 4.44727 21.9194 5.16211 22.7046 5.16211C23.3667 5.16211 23.8472 4.66992 23.8472 3.99609C23.8472 3.21094 23.0737 2.66016 22.3179 2.90039ZM22.939 3.55078C23.0503 3.59766 23.2027 3.87305 23.2027 4.03711C23.2027 4.10156 23.1323 4.23047 23.0503 4.33008C22.7398 4.69922 22.2066 4.48242 22.2066 3.99023C22.2066 3.80859 22.2417 3.73242 22.3589 3.63867C22.5112 3.51563 22.7515 3.48047 22.939 3.55078Z" fill="black"/>
<path d="M13.3181 10.3121C13.2478 10.3414 13.1599 10.4235 13.1247 10.4938C13.0661 10.5992 13.072 10.6461 13.1716 10.775C13.2653 10.9039 13.3356 10.9274 13.6345 10.9449C13.9626 10.9625 14.0036 10.9508 14.1149 10.8043C14.2673 10.611 14.2673 10.5934 14.1325 10.4293C14.0153 10.2828 13.5466 10.2125 13.3181 10.3121Z" fill="black"/>
<path d="M14.9411 10.3298C14.736 10.4294 14.7067 10.7341 14.8942 10.863C15.0934 11.0036 15.6149 10.986 15.7614 10.8395C15.8844 10.7165 15.9079 10.5641 15.8317 10.4528C15.7028 10.2595 15.2165 10.1891 14.9411 10.3298Z" fill="black"/>
<path d="M16.6989 10.2946C16.4059 10.4118 16.3298 10.6462 16.5231 10.8395C16.6696 10.986 17.1911 11.0036 17.3903 10.863C17.5426 10.7575 17.5661 10.4821 17.4313 10.3708C17.3317 10.2888 16.8395 10.236 16.6989 10.2946Z" fill="black"/>
<path d="M19.4526 10.3124C18.8726 10.4179 18.4976 10.8632 18.4976 11.455C18.4976 12.4276 19.5991 12.9784 20.3784 12.3866C20.8999 11.9882 20.9644 11.1561 20.5132 10.6405C20.2964 10.3944 19.8218 10.2479 19.4526 10.3124ZM20.0093 11.1034C20.3257 11.414 20.103 11.953 19.6577 11.953C19.3706 11.953 19.1597 11.7421 19.1597 11.455C19.1597 11.0097 19.6987 10.787 20.0093 11.1034Z" fill="black"/>
<path d="M22.4995 10.3126C21.9312 10.4122 21.5034 10.9044 21.5034 11.4551C21.5034 11.9473 21.8784 12.4337 22.3589 12.5743C22.7339 12.6798 22.9917 12.6446 23.3374 12.4219C24.0229 11.9883 24.0112 10.8751 23.3081 10.4649C23.0737 10.3243 22.769 10.2657 22.4995 10.3126ZM23.0151 11.0743C23.1851 11.2325 23.2319 11.4493 23.144 11.6661C23.0151 11.9708 22.6401 12.0528 22.3589 11.8301C22.1479 11.6661 22.1421 11.3087 22.353 11.1036C22.5288 10.9219 22.8335 10.9102 23.0151 11.0743Z" fill="black"/>
<path d="M13.1539 17.8943C13.0485 18.0525 13.1129 18.2985 13.2711 18.363C13.4411 18.4275 13.9801 18.3982 14.0856 18.322C14.2086 18.2282 14.2262 17.9704 14.1207 17.8415C14.068 17.7771 13.9332 17.7536 13.6461 17.7536C13.2887 17.7536 13.236 17.7712 13.1539 17.8943Z" fill="black"/>
<path d="M14.859 17.8476C14.736 17.9707 14.7418 18.1816 14.8707 18.2988C15.0348 18.4453 15.609 18.4336 15.7613 18.2812C15.9078 18.1347 15.9137 17.9765 15.7731 17.8535C15.6266 17.7187 14.9879 17.7129 14.859 17.8476Z" fill="black"/>
<path d="M16.4996 17.8828C16.3765 18.0586 16.3824 18.1406 16.523 18.2812C16.6109 18.3691 16.7164 18.3984 16.98 18.3984C17.3668 18.3984 17.5191 18.293 17.5191 18.041C17.5191 17.8125 17.4136 17.7539 16.9859 17.7539C16.6402 17.7539 16.5757 17.7715 16.4996 17.8828Z" fill="black"/>
<path d="M19.1129 17.8768C18.4273 18.2166 18.2809 19.1482 18.8316 19.7166C19.3414 20.2439 20.1441 20.2029 20.5836 19.617C21.3336 18.6268 20.232 17.326 19.1129 17.8768ZM19.8805 18.4686C20.3492 18.7146 20.1852 19.3943 19.6578 19.3943C19.1363 19.3943 18.9664 18.7322 19.4234 18.4686C19.5758 18.3807 19.7223 18.3807 19.8805 18.4686Z" fill="black"/>
<path d="M22.1362 17.8708C21.7964 18.0524 21.5034 18.527 21.5034 18.8903C21.5034 19.1774 21.644 19.4938 21.8784 19.7223C22.7222 20.5719 24.0464 19.8102 23.8237 18.6032C23.7769 18.3512 23.4253 17.9411 23.1616 17.8298C22.8862 17.7184 22.394 17.736 22.1362 17.8708ZM23.0327 18.568C23.3667 18.902 23.1675 19.3942 22.6987 19.3942C22.394 19.3942 22.2065 19.2126 22.2065 18.9137C22.2065 18.4333 22.6929 18.2341 23.0327 18.568Z" fill="black"/>
<path d="M8.87061 2.68938C8.56592 2.87102 8.47217 3.05266 8.23779 3.88469L8.01514 4.68156L7.62256 4.80461C7.41162 4.87492 7.01904 5.03313 6.76123 5.15617L6.28662 5.37297L5.61865 4.99211C4.93311 4.60539 4.59326 4.50578 4.2417 4.59367C4.06006 4.64055 3.14014 5.50774 3.01123 5.75383C2.96436 5.84172 2.9292 6.03508 2.9292 6.18742C2.9292 6.4218 2.99365 6.58586 3.33936 7.20695L3.74951 7.9511L3.54443 8.35539C3.43311 8.57805 3.2749 8.95891 3.19287 9.205L3.04053 9.65031L2.24365 9.87297C1.03076 10.2187 0.937012 10.33 0.937012 11.4667C0.937012 12.123 0.95459 12.2402 1.06006 12.4159C1.25342 12.7382 1.38818 12.8085 2.19678 13.037C2.61865 13.1542 2.98779 13.2831 3.02295 13.3183C3.05811 13.3593 3.13428 13.5351 3.18701 13.7109C3.24561 13.8866 3.39209 14.2499 3.51514 14.5136L3.73779 14.9941L3.32764 15.7265C2.71826 16.8163 2.7417 16.9687 3.61475 17.8241C4.37061 18.5566 4.47021 18.5683 5.57764 17.953C5.95264 17.748 6.28662 17.578 6.31592 17.578C6.33936 17.578 6.54443 17.6659 6.77295 17.7773C6.99561 17.8886 7.34717 18.0351 7.55811 18.1054C7.76904 18.1757 7.95654 18.2519 7.98584 18.2753C8.00928 18.2988 8.12061 18.6445 8.23779 19.0488C8.35498 19.4472 8.48975 19.8398 8.53662 19.9218C8.69482 20.1913 8.97607 20.332 9.42139 20.373C9.92529 20.414 10.1362 20.3144 10.1362 20.039C10.1362 19.7988 9.94873 19.6874 9.53857 19.6874C9.1167 19.6874 9.10498 19.6698 8.81787 18.6679C8.70068 18.246 8.57764 17.8593 8.54834 17.8066C8.51904 17.7421 8.29053 17.6425 7.9917 17.5488C7.71631 17.4667 7.23584 17.2675 6.92529 17.1034C6.61475 16.9452 6.3335 16.8163 6.3042 16.8163C6.26904 16.8163 5.89404 17.0155 5.46631 17.2558C5.03271 17.496 4.62256 17.6952 4.55225 17.6952C4.3999 17.6952 3.57373 16.8984 3.57373 16.746C3.57373 16.6874 3.77295 16.2948 4.01318 15.8671C4.25342 15.4394 4.45264 15.0468 4.45264 14.9941C4.45264 14.9355 4.33545 14.6659 4.19482 14.3964C4.04834 14.121 3.86084 13.664 3.77295 13.3769C3.68506 13.0956 3.58545 12.8261 3.55029 12.7851C3.50928 12.7441 3.09912 12.6034 2.63037 12.4745C2.16748 12.3398 1.73975 12.1933 1.68701 12.1405C1.59912 12.0702 1.58154 11.9472 1.58154 11.4491C1.58154 10.7167 1.52881 10.7636 2.60693 10.4589C3.02881 10.3417 3.42139 10.2128 3.4917 10.1659C3.56787 10.1191 3.6499 9.94914 3.71436 9.70891C3.77295 9.50383 3.96045 9.03508 4.13623 8.6718C4.31201 8.30852 4.45264 7.97453 4.45264 7.92766C4.45264 7.88078 4.25342 7.4882 4.01318 7.06047C3.77295 6.63274 3.57373 6.2343 3.57373 6.16985C3.57373 6.02922 4.39404 5.21477 4.54053 5.21477C4.59912 5.21477 4.99756 5.41399 5.42529 5.65422C5.85303 5.89445 6.23975 6.09367 6.29248 6.09367C6.33936 6.09367 6.61475 5.97649 6.896 5.83C7.17725 5.68352 7.63428 5.49602 7.90967 5.40813C8.18506 5.3261 8.45459 5.21477 8.50732 5.16203C8.56006 5.1093 8.70068 4.71086 8.81787 4.27727C9.10498 3.22844 9.10498 3.22258 9.57959 3.22258C10.0015 3.22258 10.1362 3.14055 10.1362 2.87688C10.1362 2.62492 10.0425 2.57805 9.52686 2.57805C9.16357 2.57805 9.01123 2.60735 8.87061 2.68938Z" fill="black"/>
<path d="M8.99951 8.34961C8.47217 8.49609 7.95654 8.80078 7.55811 9.19922C6.3042 10.4648 6.3042 12.4629 7.55811 13.7109C8.15576 14.3086 8.92334 14.6484 9.66748 14.6484C10.0308 14.6484 10.1362 14.584 10.1362 14.3555C10.1362 14.1328 9.96631 14.0039 9.68506 14.0039C9.09912 14.0039 8.29053 13.5996 7.89209 13.1133C7.21826 12.2871 7.10107 11.2676 7.55811 10.3301C7.95654 9.52148 8.89404 8.91211 9.73779 8.90625C9.85498 8.90625 9.99561 8.86523 10.0425 8.8125C10.1538 8.70703 10.1655 8.43164 10.0659 8.33203C9.97217 8.23828 9.36865 8.25 8.99951 8.34961Z" fill="black"/>
</g>
<defs>
<clipPath id="clip0_279_4417">
<rect width="30" height="30" fill="white"/>
</clipPath>
</defs>
</svg>
