<svg width="145" height="21" viewBox="0 0 145 21" fill="none" xmlns="http://www.w3.org/2000/svg">
<path d="M8.56442 2.27279C8.75568 1.93347 9.24432 1.93347 9.43558 2.27279L11.7443 6.36882C11.8156 6.49541 11.9385 6.5847 12.081 6.61344L16.6899 7.5434C17.0718 7.62043 17.2228 8.08516 16.9591 8.37191L13.777 11.8334C13.6787 11.9403 13.6317 12.0848 13.6484 12.2291L14.1882 16.8999C14.2329 17.2869 13.8376 17.5741 13.4834 17.412L9.20808 15.4552C9.07595 15.3948 8.92405 15.3948 8.79192 15.4552L4.51655 17.412C4.16238 17.5741 3.76706 17.2869 3.81178 16.8999L4.35159 12.2291C4.36828 12.0848 4.32134 11.9403 4.22299 11.8334L1.04086 8.37191C0.777243 8.08516 0.92824 7.62043 1.31006 7.5434L5.91904 6.61344C6.06149 6.5847 6.18438 6.49541 6.25573 6.36882L8.56442 2.27279Z" fill="#FFA200"/>
<path d="M30.5644 2.27279C30.7557 1.93347 31.2443 1.93347 31.4356 2.27279L33.7443 6.36882C33.8156 6.49541 33.9385 6.5847 34.081 6.61344L38.6899 7.5434C39.0718 7.62043 39.2228 8.08516 38.9591 8.37191L35.777 11.8334C35.6787 11.9403 35.6317 12.0848 35.6484 12.2291L36.1882 16.8999C36.2329 17.2869 35.8376 17.5741 35.4834 17.412L31.2081 15.4552C31.076 15.3948 30.924 15.3948 30.7919 15.4552L26.5166 17.412C26.1624 17.5741 25.7671 17.2869 25.8118 16.8999L26.3516 12.2291C26.3683 12.0848 26.3213 11.9403 26.223 11.8334L23.0409 8.37191C22.7772 8.08516 22.9282 7.62043 23.3101 7.5434L27.919 6.61344C28.0615 6.5847 28.1844 6.49541 28.2557 6.36882L30.5644 2.27279Z" fill="#FFA200"/>
<path d="M52.5644 2.27279C52.7557 1.93347 53.2443 1.93347 53.4356 2.27279L55.7443 6.36882C55.8156 6.49541 55.9385 6.5847 56.081 6.61344L60.6899 7.5434C61.0718 7.62043 61.2228 8.08516 60.9591 8.37191L57.777 11.8334C57.6787 11.9403 57.6317 12.0848 57.6484 12.2291L58.1882 16.8999C58.2329 17.2869 57.8376 17.5741 57.4834 17.412L53.2081 15.4552C53.076 15.3948 52.924 15.3948 52.7919 15.4552L48.5166 17.412C48.1624 17.5741 47.7671 17.2869 47.8118 16.8999L48.3516 12.2291C48.3683 12.0848 48.3213 11.9403 48.223 11.8334L45.0409 8.37191C44.7772 8.08516 44.9282 7.62043 45.3101 7.5434L49.919 6.61344C50.0615 6.5847 50.1844 6.49541 50.2557 6.36882L52.5644 2.27279Z" fill="#FFA200"/>
<path d="M74.5644 2.27279C74.7557 1.93347 75.2443 1.93347 75.4356 2.27279L77.7443 6.36882C77.8156 6.49541 77.9385 6.5847 78.081 6.61344L82.6899 7.5434C83.0718 7.62043 83.2228 8.08516 82.9591 8.37191L79.777 11.8334C79.6787 11.9403 79.6317 12.0848 79.6484 12.2291L80.1882 16.8999C80.2329 17.2869 79.8376 17.5741 79.4834 17.412L75.2081 15.4552C75.076 15.3948 74.924 15.3948 74.7919 15.4552L70.5166 17.412C70.1624 17.5741 69.7671 17.2869 69.8118 16.8999L70.3516 12.2291C70.3683 12.0848 70.3213 11.9403 70.223 11.8334L67.0409 8.37191C66.7772 8.08516 66.9282 7.62043 67.3101 7.5434L71.919 6.61344C72.0615 6.5847 72.1844 6.49541 72.2557 6.36882L74.5644 2.27279Z" fill="#FFA200"/>
<path d="M95.5644 2.27279C95.7557 1.93347 96.2443 1.93346 96.4356 2.27279L98.4269 5.80569C98.4982 5.93228 98.6211 6.02157 98.7636 6.05031L102.739 6.85241C103.121 6.92945 103.272 7.39417 103.008 7.68092L100.263 10.6665C100.165 10.7735 100.118 10.9179 100.135 11.0623L100.6 15.0909C100.645 15.4778 100.25 15.7651 99.8957 15.603L96.2081 13.9152C96.076 13.8548 95.924 13.8548 95.7919 13.9152L92.1043 15.603C91.7502 15.7651 91.3548 15.4778 91.3996 15.0909L91.8652 11.0623C91.8818 10.9179 91.8349 10.7735 91.7366 10.6665L88.9919 7.68093C88.7283 7.39417 88.8793 6.92945 89.2611 6.85241L93.2364 6.05031C93.3789 6.02157 93.5018 5.93228 93.5731 5.80569L95.5644 2.27279Z" fill="#FFA200"/>
<mask id="mask0_440_776" style="mask-type:alpha" maskUnits="userSpaceOnUse" x="88" y="2" width="16" height="14">
<path d="M95.5644 2.27279C95.7557 1.93347 96.2443 1.93346 96.4356 2.27279L98.4269 5.80569C98.4982 5.93228 98.6211 6.02157 98.7636 6.05031L102.739 6.85241C103.121 6.92945 103.272 7.39417 103.008 7.68092L100.263 10.6665C100.165 10.7735 100.118 10.9179 100.135 11.0623L100.6 15.0909C100.645 15.4778 100.25 15.7651 99.8957 15.603L96.2081 13.9152C96.076 13.8548 95.924 13.8548 95.7919 13.9152L92.1043 15.603C91.7502 15.7651 91.3548 15.4778 91.3996 15.0909L91.8652 11.0623C91.8818 10.9179 91.8349 10.7735 91.7366 10.6665L88.9919 7.68093C88.7283 7.39417 88.8793 6.92945 89.2611 6.85241L93.2364 6.05031C93.3789 6.02157 93.5018 5.93228 93.5731 5.80569L95.5644 2.27279Z" fill="#F5C252"/>
</mask>
<g mask="url(#mask0_440_776)">
<rect x="88" y="1.5" width="16" height="15" fill="#D9D9D9"/>
</g>
<path d="M127.234 5.79688V13.0312H128.898V14.5391H127.234V17H125.477V14.5391H120.406V13.0156C120.865 12.5 121.333 11.9427 121.812 11.3438C122.297 10.7396 122.76 10.125 123.203 9.5C123.651 8.86979 124.065 8.23958 124.445 7.60938C124.826 6.97917 125.146 6.375 125.406 5.79688H127.234ZM125.477 13.0312V8.32812C124.909 9.34896 124.346 10.2396 123.789 11C123.237 11.7604 122.719 12.4375 122.234 13.0312H125.477ZM135.992 5.79688L130.578 18.8594H128.93L134.32 5.79688H135.992ZM137.055 16.7422V15C137.789 15.4948 138.534 15.7422 139.289 15.7422C140.049 15.7422 140.661 15.5495 141.125 15.1641C141.589 14.7734 141.82 14.2552 141.82 13.6094C141.82 12.974 141.583 12.4792 141.109 12.125C140.641 11.7708 139.966 11.5938 139.086 11.5938C138.784 11.5938 138.172 11.625 137.25 11.6875L137.648 5.79688H143.164V7.34375H139.156L138.969 10.1484C139.328 10.1276 139.654 10.1172 139.945 10.1172C141.133 10.1172 142.049 10.4219 142.695 11.0312C143.346 11.6406 143.672 12.474 143.672 13.5312C143.672 14.6406 143.299 15.5312 142.555 16.2031C141.815 16.8698 140.797 17.2031 139.5 17.2031C138.406 17.2031 137.591 17.0495 137.055 16.7422Z" fill="#212329"/>
</svg>
