<svg width="30" height="30" viewBox="0 0 30 30" fill="none" xmlns="http://www.w3.org/2000/svg">
<g clip-path="url(#clip0_440_79)">
<path d="M19.1541 0.556641C18.5388 0.673828 17.8005 0.949219 17.2556 1.26562C16.7986 1.53516 15.8435 2.39648 15.6619 2.69531L15.574 2.85352L15.1052 2.61328L14.6365 2.37305H8.44312H2.24976L1.80444 2.58984C1.27124 2.85352 0.943115 3.19336 0.685303 3.73828L0.497803 4.13086V15.9434V27.75L0.7146 28.1953C0.978271 28.7285 1.31812 29.0566 1.86304 29.3145L2.25562 29.502H8.43726H14.6189L15.0115 29.3145C15.5564 29.0566 15.8962 28.7285 16.1599 28.1953L16.3767 27.75L16.3943 19.7344L16.406 11.7188H19.9216H23.4373V13.125V14.5312H21.4685C20.0916 14.5312 19.4236 14.5547 19.2537 14.6016C18.9314 14.6953 18.4451 15.1816 18.3513 15.5039C18.2576 15.8262 18.2576 17.9531 18.3513 18.2285C18.3865 18.3398 18.4685 18.498 18.5271 18.5918C18.6384 18.75 18.6384 18.75 18.5271 18.9141C18.3103 19.2188 18.281 19.4414 18.281 20.625C18.281 21.8086 18.3103 22.0312 18.5271 22.3359C18.6384 22.5 18.6384 22.5 18.5271 22.6582C18.4685 22.752 18.3865 22.9102 18.3513 23.0215C18.2576 23.2969 18.2576 25.4238 18.3513 25.7461C18.4451 26.0684 18.9314 26.5547 19.2537 26.6484C19.5994 26.748 28.2126 26.748 28.5583 26.6484C28.8806 26.5547 29.3669 26.0684 29.4607 25.7461C29.5076 25.5938 29.531 25.0781 29.531 24.334C29.531 23.1621 29.531 23.1621 29.3669 22.8281L29.197 22.5L29.3669 22.1719L29.531 21.8379V20.625V19.4121L29.3669 19.0781L29.197 18.75L29.3669 18.4219C29.531 18.0879 29.531 18.0879 29.531 16.916C29.531 16.1836 29.5076 15.6621 29.4607 15.5156C29.4255 15.3867 29.2791 15.1523 29.1384 15C28.7283 14.543 28.6638 14.5312 26.3552 14.5312H24.3748V13.1309V11.7305L25.6521 11.707C26.8357 11.6836 26.9529 11.6719 27.3103 11.5371C27.8669 11.3203 28.2009 11.1094 28.5701 10.7402C29.8416 9.44531 29.8357 7.41797 28.5642 6.13477C27.9138 5.47852 26.9939 5.12109 26.0798 5.16797L25.7048 5.18555L25.5935 4.72266C25.1306 2.75977 23.4666 1.11328 21.4392 0.615234C20.9001 0.480469 19.7048 0.451172 19.1541 0.556641ZM20.988 1.48828C23.156 1.91016 24.6853 3.65039 24.8259 5.87109C24.8435 6.1875 24.8669 6.44531 24.8728 6.44531C24.8845 6.44531 25.072 6.375 25.2888 6.28711C25.6228 6.1582 25.7869 6.12891 26.2498 6.12891C26.7595 6.12305 26.8416 6.14062 27.199 6.31055C27.7439 6.56836 28.0837 6.89648 28.3474 7.42969C28.5525 7.85156 28.5642 7.9043 28.5642 8.43164C28.5642 8.94141 28.5466 9.0293 28.3767 9.38672C28.1189 9.93164 27.7908 10.2715 27.2576 10.5352L26.8123 10.752H20.6248H14.4373L13.9919 10.5352C13.4587 10.2715 13.1306 9.93164 12.8728 9.38672C12.7029 9.0293 12.6853 8.94141 12.6853 8.43164C12.6853 7.9043 12.697 7.85156 12.908 7.42969C13.3357 6.55664 14.0916 6.09961 15.0935 6.09375H15.4509L15.4919 5.69531C15.6208 4.40625 16.2302 3.24023 17.1853 2.46094C17.7712 1.98047 18.7498 1.54688 19.4822 1.44727C19.8865 1.39453 20.5837 1.41211 20.988 1.48828ZM14.5896 3.4043C15.0701 3.62109 15.0642 3.60938 14.8474 4.29492C14.7419 4.62305 14.6365 4.96289 14.6189 5.05078C14.5955 5.17383 14.5544 5.21484 14.449 5.21484C14.115 5.21484 13.3416 5.56055 12.9548 5.88281L12.7029 6.09375H7.05444H1.40601V5.29688C1.40601 4.83984 1.4353 4.39453 1.47632 4.25391C1.56421 3.95508 2.0564 3.45117 2.34351 3.35742C2.48413 3.31055 4.31812 3.29297 8.43726 3.28711C14.238 3.28125 14.3318 3.28711 14.5896 3.4043ZM12.0115 7.04883C12.0115 7.06055 11.9587 7.22461 11.8943 7.41797C11.3728 8.92383 12.1111 10.6699 13.5583 11.3672C14.0798 11.6133 14.531 11.7188 15.0994 11.7188H15.4685V18.2812V24.8438H8.43726H1.40601V15.9375V7.03125H6.70874C9.62671 7.03125 12.0115 7.04297 12.0115 7.04883ZM28.447 15.6152C28.5935 15.7559 28.5935 15.7676 28.5935 16.875C28.5935 17.9824 28.5935 17.9941 28.447 18.1348L28.3064 18.2812H23.906H19.5056L19.365 18.1348C19.2185 17.9941 19.2185 17.9824 19.2185 16.875C19.2185 15.7676 19.2185 15.7559 19.365 15.6152L19.5056 15.4688H23.906H28.3064L28.447 15.6152ZM28.447 19.3652C28.5935 19.5059 28.5935 19.5176 28.5935 20.625C28.5935 21.7324 28.5935 21.7441 28.447 21.8848L28.3064 22.0312H23.906H19.5056L19.365 21.8848C19.2185 21.7441 19.2185 21.7324 19.2185 20.625C19.2185 19.5176 19.2185 19.5059 19.365 19.3652L19.5056 19.2188H23.906H28.3064L28.447 19.3652ZM28.447 23.1152C28.5935 23.2559 28.5935 23.2676 28.5935 24.375C28.5935 25.4824 28.5935 25.4941 28.447 25.6348L28.3064 25.7812H23.906H19.5056L19.365 25.6348C19.2185 25.4941 19.2185 25.4824 19.2185 24.375C19.2185 23.2676 19.2185 23.2559 19.365 23.1152L19.5056 22.9688H23.906H28.3064L28.447 23.1152ZM15.4685 26.5781C15.4685 27.0352 15.4392 27.4805 15.3982 27.6211C15.3044 27.9434 14.8181 28.4297 14.4958 28.5234C14.1443 28.623 2.73022 28.623 2.37866 28.5234C2.0564 28.4297 1.57007 27.9434 1.47632 27.6211C1.4353 27.4805 1.40601 27.0352 1.40601 26.5781V25.7812H8.43726H15.4685V26.5781Z" fill="black"/>
<path d="M20.1558 2.80078V3.25781L20.5718 3.32227C21.7788 3.50977 22.7397 4.47656 22.9331 5.68945L22.9917 6.09375H23.4604H23.9233L23.8823 5.71289C23.7534 4.47656 22.9624 3.32227 21.855 2.76562C21.3745 2.52539 20.7358 2.34961 20.3491 2.34375H20.1558V2.80078Z" fill="black"/>
<path d="M16.4058 7.10742C16.1187 7.20117 15.6265 7.70508 15.5386 8.00391C15.3746 8.55469 15.4918 8.99414 15.9078 9.4043C16.2066 9.70898 16.5054 9.84375 16.8746 9.84375C17.2437 9.84375 17.5425 9.70898 17.8414 9.4043C18.4156 8.83594 18.4332 8.10352 17.8882 7.5C17.5074 7.07812 16.9625 6.93164 16.4058 7.10742ZM17.1968 8.11523C17.2906 8.20312 17.3433 8.32617 17.3433 8.4375C17.3433 8.54883 17.2906 8.67188 17.1968 8.75977C17.1089 8.85352 16.9859 8.90625 16.8746 8.90625C16.7632 8.90625 16.6402 8.85352 16.5523 8.75977C16.4586 8.67188 16.4058 8.54883 16.4058 8.4375C16.4058 8.32617 16.4586 8.20312 16.5523 8.11523C16.6402 8.02148 16.7632 7.96875 16.8746 7.96875C16.9859 7.96875 17.1089 8.02148 17.1968 8.11523Z" fill="black"/>
<path d="M20.1558 7.10742C19.8687 7.20117 19.3765 7.70508 19.2886 8.00391C19.1246 8.55469 19.2418 8.99414 19.6578 9.4043C19.9566 9.70898 20.2554 9.84375 20.6246 9.84375C20.9937 9.84375 21.2925 9.70898 21.5914 9.4043C22.1656 8.83594 22.1832 8.10352 21.6382 7.5C21.2574 7.07812 20.7125 6.93164 20.1558 7.10742ZM20.9468 8.11523C21.0406 8.20312 21.0933 8.32617 21.0933 8.4375C21.0933 8.54883 21.0406 8.67188 20.9468 8.75977C20.8589 8.85352 20.7359 8.90625 20.6246 8.90625C20.5132 8.90625 20.3902 8.85352 20.3023 8.75977C20.2086 8.67188 20.1558 8.54883 20.1558 8.4375C20.1558 8.32617 20.2086 8.20312 20.3023 8.11523C20.3902 8.02148 20.5132 7.96875 20.6246 7.96875C20.7359 7.96875 20.8589 8.02148 20.9468 8.11523Z" fill="black"/>
<path d="M23.9058 7.10742C23.6187 7.20117 23.1265 7.70508 23.0386 8.00391C22.8746 8.55469 22.9918 8.99414 23.4078 9.4043C23.7066 9.70898 24.0054 9.84375 24.3746 9.84375C24.7437 9.84375 25.0425 9.70898 25.3414 9.4043C25.9156 8.83594 25.9332 8.10352 25.3882 7.5C25.0074 7.07812 24.4625 6.93164 23.9058 7.10742ZM24.6968 8.11523C24.7906 8.20312 24.8433 8.32617 24.8433 8.4375C24.8433 8.54883 24.7906 8.67188 24.6968 8.75977C24.6089 8.85352 24.4859 8.90625 24.3746 8.90625C24.2632 8.90625 24.1402 8.85352 24.0523 8.75977C23.9586 8.67188 23.9058 8.54883 23.9058 8.4375C23.9058 8.32617 23.9586 8.20312 24.0523 8.11523C24.1402 8.02148 24.2632 7.96875 24.3746 7.96875C24.4859 7.96875 24.6089 8.02148 24.6968 8.11523Z" fill="black"/>
<path d="M2.48993 4.36523C2.19697 4.65234 2.40204 5.15625 2.8122 5.15625C3.05243 5.15625 3.28095 4.92773 3.28095 4.6875C3.28095 4.44727 3.05243 4.21875 2.8122 4.21875C2.70087 4.21875 2.57782 4.27148 2.48993 4.36523Z" fill="black"/>
<path d="M4.36493 4.36523C4.07197 4.65234 4.27704 5.15625 4.6872 5.15625C4.92743 5.15625 5.15595 4.92773 5.15595 4.6875C5.15595 4.44727 4.92743 4.21875 4.6872 4.21875C4.57587 4.21875 4.45282 4.27148 4.36493 4.36523Z" fill="black"/>
<path d="M2.34326 9.375V10.7812H4.21826H6.09326V9.375V7.96875H4.21826H2.34326V9.375ZM5.15576 9.375V9.84375H4.21826H3.28076V9.375V8.90625H4.21826H5.15576V9.375Z" fill="black"/>
<path d="M7.03076 9.375V10.7812H8.90576H10.7808V9.375V7.96875H8.90576H7.03076V9.375ZM9.84326 9.375V9.84375H8.90576H7.96826V9.375V8.90625H8.90576H9.84326V9.375Z" fill="black"/>
<path d="M7.72217 11.8066C7.36475 11.9355 7.11865 12.1641 6.91943 12.5391C6.63818 13.0664 6.33936 13.2129 5.8999 13.0371C5.56592 12.8965 5.06201 12.9082 4.72217 13.0547C4.37646 13.2129 3.8374 13.7461 3.68506 14.0977C3.53271 14.4316 3.52686 14.9355 3.66162 15.2578C3.84912 15.6973 3.69678 16.0078 3.16357 16.2949C2.57764 16.6055 2.34326 17.0391 2.34326 17.8066C2.34326 18.5977 2.60107 19.0488 3.22217 19.3652C3.68506 19.5996 3.83154 19.9277 3.66162 20.3496C3.521 20.6836 3.53271 21.1875 3.6792 21.5273C3.8374 21.873 4.37061 22.4121 4.72217 22.5645C5.05615 22.7168 5.56006 22.7227 5.88232 22.5879C6.32178 22.4004 6.63232 22.5527 6.91943 23.0918C7.22998 23.6719 7.66943 23.9062 8.43701 23.9062C9.21045 23.9062 9.64404 23.6719 9.95459 23.0859C10.2417 22.5527 10.5522 22.4004 10.9917 22.5879C11.314 22.7227 11.8179 22.7168 12.1519 22.5645C12.5034 22.4121 13.0366 21.8789 13.189 21.5273C13.3413 21.1934 13.3472 20.6895 13.2124 20.3672C13.0249 19.9277 13.1772 19.6172 13.7163 19.3301C14.2964 19.0195 14.5308 18.5801 14.5308 17.8125C14.5308 17.0449 14.2964 16.6055 13.7163 16.2949C13.1772 16.0078 13.0249 15.6973 13.2124 15.2578C13.3472 14.9355 13.3413 14.4316 13.189 14.0977C13.0366 13.752 12.5034 13.2129 12.1519 13.0605C11.812 12.9082 11.355 12.8965 11.0034 13.0312C10.5347 13.2129 10.2417 13.0781 9.95459 12.5391C9.63818 11.9414 9.21045 11.7188 8.41357 11.7246C8.15576 11.7246 7.83936 11.7656 7.72217 11.8066ZM8.95264 12.75C9.02295 12.7969 9.13428 12.9668 9.20459 13.1309C9.51514 13.8457 10.4409 14.2266 11.2144 13.9512C11.5132 13.8457 11.5776 13.8398 11.7417 13.9102C11.9585 14.0039 12.2749 14.3262 12.3511 14.5312C12.3921 14.6367 12.3745 14.7656 12.2983 15C12.1577 15.4336 12.1636 15.7441 12.3101 16.1367C12.48 16.5703 12.7612 16.8867 13.1187 17.0449C13.5112 17.2148 13.5933 17.3438 13.5933 17.8125C13.5933 18.2812 13.5112 18.4102 13.1187 18.5801C12.7612 18.7383 12.48 19.0547 12.3101 19.4883C12.1636 19.8809 12.1577 20.1914 12.2983 20.625C12.4272 21.0059 12.3921 21.1406 12.0874 21.457C11.7886 21.7617 11.6421 21.8027 11.2495 21.6738C10.8159 21.5332 10.5054 21.5391 10.1128 21.6855C9.6792 21.8555 9.36279 22.1367 9.20459 22.4941C9.03467 22.8867 8.90576 22.9688 8.43701 22.9688C7.96826 22.9688 7.83936 22.8867 7.66943 22.4941C7.51123 22.1367 7.19482 21.8555 6.76123 21.6855C6.36865 21.5391 6.05811 21.5332 5.62451 21.6738C5.39014 21.75 5.26123 21.7676 5.15576 21.7266C4.95068 21.6504 4.62842 21.334 4.53467 21.1172C4.46436 20.9531 4.47021 20.8887 4.56982 20.6016C4.72217 20.1855 4.71631 19.8926 4.56396 19.4883C4.39404 19.0547 4.11279 18.7383 3.75537 18.5801C3.36279 18.4102 3.28076 18.2812 3.28076 17.8125C3.28076 17.3555 3.36279 17.2148 3.7085 17.0625C4.07764 16.8984 4.31201 16.6699 4.48193 16.3066C4.69873 15.8496 4.72803 15.4629 4.57568 15.0352C4.47021 14.7363 4.46436 14.6719 4.53467 14.5078C4.62842 14.2852 4.95068 13.9746 5.16748 13.8926C5.28467 13.8457 5.396 13.8633 5.64795 13.9512C6.06396 14.0977 6.35693 14.0918 6.75537 13.9395C7.19482 13.7695 7.46436 13.5352 7.65186 13.1484C7.73975 12.9727 7.86279 12.791 7.93311 12.7441C8.09717 12.6211 8.77686 12.627 8.95264 12.75Z" fill="black"/>
<path d="M7.76324 14.6015C7.2359 14.7011 6.56793 15.0703 6.12848 15.5039C5.12652 16.5117 4.88043 17.9648 5.50152 19.2421C6.48004 21.2636 9.18707 21.7089 10.7574 20.1152C12.0289 18.8203 12.023 16.7929 10.7515 15.5097C9.97809 14.7246 8.87652 14.3906 7.76324 14.6015ZM9.39801 15.6914C9.93121 15.9375 10.2711 16.2773 10.5347 16.8046C10.7398 17.2265 10.7515 17.2792 10.7515 17.8125C10.7515 18.3457 10.7398 18.3984 10.5347 18.8203C10.2711 19.3535 9.93121 19.6816 9.38629 19.9394C9.02887 20.1093 8.94098 20.1269 8.43707 20.1269C7.93316 20.1269 7.84527 20.1093 7.48785 19.9394C6.94293 19.6816 6.60309 19.3535 6.33941 18.8203C6.13434 18.3984 6.12262 18.3457 6.12262 17.8183C6.12262 17.3085 6.1402 17.2207 6.31012 16.8632C6.54449 16.3652 6.87848 16.0019 7.31793 15.7734C7.77496 15.5273 8.03277 15.4687 8.56598 15.4921C8.9234 15.5097 9.10504 15.5566 9.39801 15.6914Z" fill="black"/>
<path d="M7.96832 16.4824C7.68121 16.5762 7.18902 17.0801 7.10113 17.3789C6.93707 17.9297 7.05426 18.3691 7.47027 18.7793C8.06207 19.377 8.81207 19.377 9.40387 18.7793C9.97809 18.2109 9.99566 17.4785 9.45074 16.875C9.06988 16.4531 8.52496 16.3066 7.96832 16.4824ZM8.75934 17.4902C9.0523 17.7773 8.84723 18.2812 8.43707 18.2812C8.32574 18.2812 8.20269 18.2285 8.1148 18.1348C8.02105 18.0469 7.96832 17.9238 7.96832 17.8125C7.96832 17.7012 8.02105 17.5781 8.1148 17.4902C8.20269 17.3965 8.32574 17.3438 8.43707 17.3438C8.5484 17.3438 8.67144 17.3965 8.75934 17.4902Z" fill="black"/>
<path d="M20.1558 16.875V17.3438H20.6245H21.0933V16.875V16.4062H20.6245H20.1558V16.875Z" fill="black"/>
<path d="M22.0308 16.875V17.3438H22.4995H22.9683V16.875V16.4062H22.4995H22.0308V16.875Z" fill="black"/>
<path d="M24.8433 20.625V21.0938H25.312H25.7808V20.625V20.1562H25.312H24.8433V20.625Z" fill="black"/>
<path d="M26.7183 20.625V21.0938H27.187H27.6558V20.625V20.1562H27.187H26.7183V20.625Z" fill="black"/>
<path d="M20.1558 24.375V24.8438H20.6245H21.0933V24.375V23.9062H20.6245H20.1558V24.375Z" fill="black"/>
<path d="M22.0308 24.375V24.8438H22.4995H22.9683V24.375V23.9062H22.4995H22.0308V24.375Z" fill="black"/>
<path d="M6.56201 27.1875V27.6562H8.43701H10.312V27.1875V26.7188H8.43701H6.56201V27.1875Z" fill="black"/>
</g>
<defs>
<clipPath id="clip0_440_79">
<rect width="30" height="30" fill="white"/>
</clipPath>
</defs>
</svg>
