<svg width="30" height="30" viewBox="0 0 30 30" fill="none" xmlns="http://www.w3.org/2000/svg">
<g clip-path="url(#clip0_440_191)">
<path d="M8.55444 0.914061C7.88062 1.01953 7.08374 1.34765 6.55054 1.73437C5.84741 2.25 5.1853 3.1875 4.95679 3.99023C4.86304 4.30078 4.84546 4.32422 4.64624 4.36523C4.10718 4.46484 3.98413 4.71094 3.98413 5.70117V6.43359L2.99976 6.45703C2.04468 6.47461 2.00366 6.48047 1.77515 6.63281C1.63452 6.72656 1.48804 6.89062 1.41187 7.04297L1.28882 7.30078V15.7207C1.28882 22.6641 1.30054 24.1758 1.37085 24.334C1.47046 24.5859 1.81616 24.8789 2.09155 24.9551C2.23804 24.9961 3.7146 25.0195 6.34546 25.0195H10.3767L10.3591 25.7637L10.3416 26.5137L9.59155 26.9004C9.1814 27.1172 8.7771 27.3516 8.69507 27.4277C8.37866 27.7266 8.30249 28.0664 8.46655 28.459C8.5896 28.752 8.71265 28.8809 8.9939 29.0098C9.21655 29.1094 9.46851 29.1211 13.0955 29.1211C16.7341 29.1211 16.9744 29.1094 17.2029 29.0098C17.8123 28.7344 17.9939 27.9727 17.5603 27.5039C17.4548 27.3926 17.0388 27.1289 16.6111 26.9062L15.8494 26.502L15.8318 25.7637L15.8142 25.0195H19.8455C22.5056 25.0195 23.9529 24.9961 24.0994 24.9551C24.4041 24.873 24.7673 24.5332 24.8494 24.2578L24.9197 24.0352L26.0974 24.0117L27.2751 23.9941L27.6736 23.8008C27.9607 23.6602 28.1365 23.5195 28.3005 23.3086C28.7166 22.793 28.7166 22.7578 28.699 19.5352C28.6814 16.6758 28.6814 16.6699 28.5466 16.3945C28.3826 16.0664 28.0134 15.6797 27.6912 15.5098C27.4685 15.3926 27.3513 15.3809 26.1794 15.3633L24.9021 15.3457V13.2422V11.1445L26.0916 11.1211L27.2751 11.1035L27.6736 10.9102C27.9607 10.7695 28.1365 10.6289 28.3005 10.418C28.7166 9.90234 28.7166 9.86719 28.699 6.64453C28.6814 3.79687 28.6814 3.77929 28.5466 3.50976C28.3767 3.16406 28.0017 2.78906 27.6619 2.625L27.3923 2.49023H22.4412H17.49L17.1794 2.66015C16.7986 2.87109 16.5525 3.14062 16.3533 3.57422C16.2126 3.88476 16.2009 3.94922 16.1833 5.16797L16.1599 6.44531H15.2576H14.3552V5.66601C14.3552 4.99219 14.3376 4.86914 14.238 4.69922C14.1208 4.50586 13.822 4.33594 13.6052 4.33594C13.5291 4.33594 13.4822 4.25976 13.4236 4.04883C13.1775 3.08203 12.4216 2.09179 11.5076 1.52929C10.7107 1.04297 9.45093 0.779295 8.55444 0.914061ZM10.3533 1.78125C10.9333 1.96875 11.6013 2.40234 11.9822 2.83008C12.2634 3.14648 12.7029 3.96679 12.7322 4.21875C12.7556 4.45312 12.5623 4.4414 12.4802 4.19531C12.3806 3.89062 11.8826 3.21679 11.5369 2.91211C11.1736 2.58984 10.5349 2.26172 10.0486 2.13867C9.59741 2.02148 8.75366 2.02734 8.29663 2.14453C7.25952 2.41406 6.40991 3.11133 5.92944 4.08398C5.78882 4.37109 5.67163 4.46484 5.60132 4.34765C5.5603 4.27734 5.85913 3.57422 6.07007 3.24609C6.31616 2.87695 6.91382 2.29687 7.2771 2.08594C7.57007 1.91601 8.09155 1.71679 8.46655 1.64062C8.90015 1.54687 9.83179 1.61719 10.3533 1.78125ZM10.031 2.87109C12.1228 3.51562 12.7615 6.1582 11.2029 7.70508C11.0271 7.875 10.7458 8.09179 10.5759 8.17969L10.2712 8.34375L10.0662 8.13281C9.83179 7.89844 9.63843 7.85156 8.9646 7.85742C8.47241 7.85742 8.09741 7.96289 7.98022 8.13867C7.90405 8.25 7.89233 8.25 7.61694 8.08008C7.01929 7.71094 6.55054 7.04883 6.35718 6.29883C5.9939 4.875 6.8728 3.32812 8.32007 2.86523C8.77124 2.71875 9.55054 2.71875 10.031 2.87109ZM27.3982 3.28125C27.5388 3.35156 27.7146 3.50976 27.8083 3.64453L27.9783 3.88476V6.77344V9.65625L27.8025 9.9082C27.7087 10.043 27.5212 10.2129 27.3923 10.2773C27.1638 10.3945 27.0701 10.4004 24.2576 10.418L21.363 10.4355L20.449 11.3262L19.5408 12.2168L19.5232 11.4258C19.5056 10.4004 19.5291 10.4297 18.6384 10.4297C17.8416 10.4297 17.5896 10.3711 17.3083 10.125C16.8923 9.75586 16.9041 9.86719 16.8865 6.97851C16.8748 5.26758 16.8923 4.27734 16.9333 4.07812C17.0095 3.72656 17.2146 3.43945 17.5076 3.28125C17.7185 3.17578 17.8767 3.16992 22.4353 3.16406C27.0583 3.16406 27.1521 3.16406 27.3982 3.28125ZM5.50757 5.85937V6.67969H5.09741H4.68726V5.90039C4.68726 5.46679 4.70483 5.09765 4.72827 5.08008C4.74585 5.05664 4.93335 5.03906 5.13843 5.03906H5.50757V5.85937ZM13.6521 5.85937V6.67969H13.2419H12.8318V5.85937V5.03906H13.2419H13.6521V5.85937ZM4.35913 7.27148C4.54663 7.37695 4.64038 7.38867 5.16772 7.37109C5.50171 7.35937 5.81226 7.32422 5.86499 7.30078C5.9353 7.27148 6.01147 7.34765 6.16968 7.60547C6.43921 8.04492 6.96069 8.52539 7.42944 8.77734C7.6521 8.90039 7.79272 9.01172 7.79272 9.07031C7.79272 9.24023 8.00952 9.53906 8.20874 9.63867C8.35522 9.71484 8.53101 9.73242 9.11108 9.71484C9.79077 9.69726 9.84351 9.68554 9.98999 9.55078C10.0779 9.46875 10.1716 9.35156 10.1951 9.28125C10.2361 9.17578 10.3123 9.15234 10.7634 9.11719C12.3806 8.99414 13.3298 8.49023 13.5466 7.63476C13.5876 7.46484 13.6404 7.38281 13.7048 7.38281C13.7576 7.38281 13.8865 7.33008 13.9919 7.26562C14.1619 7.16015 14.2849 7.14844 15.1697 7.14844H16.1599L16.1833 8.39062C16.2185 9.83203 16.2595 10.0195 16.6755 10.4824C17.074 10.9277 17.4431 11.0801 18.1931 11.1211L18.8083 11.1504V11.7891C18.8083 12.5449 18.8845 12.7734 19.2009 12.9199C19.5759 13.1016 19.6931 13.0312 20.7244 12.041L21.6677 11.1328H22.9333H24.199V13.2422V15.3516H22.9451H21.6912L20.7537 14.4375C19.7458 13.4648 19.5818 13.3594 19.2537 13.5C18.8787 13.6582 18.8376 13.7637 18.8201 14.5957L18.7966 15.3516H18.199C17.6423 15.3516 17.5662 15.3633 17.238 15.5273C16.822 15.7383 16.5642 16.0078 16.3533 16.4648L16.2009 16.7871L16.1833 19.0547L16.1658 21.3281H9.07593H1.99194V14.3555C1.99194 7.45898 1.99194 7.38281 2.10913 7.26562C2.2146 7.16015 2.30249 7.14844 3.18726 7.14844C4.0603 7.14844 4.17163 7.16015 4.35913 7.27148ZM12.7322 7.36523C12.9255 7.40625 12.9255 7.42969 12.7556 7.68164C12.615 7.88672 11.9822 8.26172 11.7654 8.26172C11.6599 8.26172 11.6775 8.22656 11.8826 8.0039C12.0115 7.86914 12.1755 7.64062 12.2517 7.50586C12.3455 7.34179 12.4216 7.27734 12.4802 7.30078C12.5271 7.31836 12.6384 7.34765 12.7322 7.36523ZM9.55054 8.78906V9.02344H9.02319H8.49585V8.83008C8.49585 8.71875 8.51343 8.61328 8.53687 8.5957C8.55444 8.57226 8.79468 8.55469 9.06421 8.55469H9.55054V8.78906ZM21.4333 16.0078C21.4861 16.0312 22.8103 16.0488 24.3806 16.0488L27.2224 16.0547L27.4919 16.2246C27.6677 16.3359 27.7966 16.4824 27.8845 16.6582C28.0076 16.916 28.0134 16.9453 27.9958 19.7285L27.9783 22.5352L27.8142 22.7812C27.7263 22.916 27.5447 23.0859 27.4041 23.1562L27.158 23.291H22.4998C19.9392 23.291 17.7712 23.2734 17.6775 23.2441C17.5896 23.2207 17.4138 23.1035 17.2849 22.9922C16.8748 22.623 16.8689 22.541 16.8865 19.5293C16.9041 17.0039 16.9099 16.8926 17.0271 16.6758C17.0916 16.5469 17.2439 16.3594 17.3669 16.2656C17.5837 16.0898 17.6013 16.084 18.3279 16.0664C19.5583 16.043 19.5115 16.084 19.5115 15.0234V14.2266L20.4197 15.0996C20.9236 15.5742 21.3748 15.9844 21.4333 16.0078ZM16.2244 22.3887C16.3123 22.8867 16.4822 23.2148 16.822 23.5195C17.3611 24 17.238 23.9883 20.947 24.0234L24.2283 24.0527L24.0583 24.1816L23.8884 24.3164H13.0955H2.30249L2.14429 24.1934L1.99194 24.0762V23.0508V22.0312H9.07593H16.1599L16.2244 22.3887ZM15.1169 25.8926C15.1169 26.373 15.1345 26.8066 15.1521 26.8594C15.1697 26.9121 15.574 27.1523 16.0486 27.3984C17.1794 27.9961 17.2439 28.0488 16.9919 28.3008C16.8748 28.418 16.7986 28.418 13.0955 28.418C9.39233 28.418 9.31616 28.418 9.19897 28.3008C8.94702 28.0488 9.01147 27.9961 10.1423 27.3984C10.6169 27.1523 11.0212 26.9121 11.0388 26.8594C11.0564 26.8066 11.074 26.373 11.074 25.8926V25.0195H13.0955H15.1169V25.8926Z" fill="black"/>
<path d="M18.3921 4.3418C18.2515 4.48242 18.275 4.72266 18.439 4.8457C18.5152 4.9043 19.4175 4.92188 22.4703 4.92188C26.2085 4.92188 26.4136 4.91602 26.5015 4.81641C26.6304 4.67578 26.6246 4.43555 26.4957 4.31836C26.396 4.22461 26.0328 4.21875 22.4527 4.21875C18.5386 4.21875 18.5152 4.21875 18.3921 4.3418Z" fill="black"/>
<path d="M18.48 5.73047C18.4038 5.77734 18.2808 6 18.2808 6.08789C18.2808 6.12305 18.3335 6.20508 18.3979 6.26953C18.5151 6.38672 18.5913 6.38672 21.9312 6.38672C25.1714 6.38672 25.3589 6.38086 25.4468 6.28125C25.5757 6.14062 25.5698 5.90039 25.4409 5.7832C25.3413 5.69531 25.0132 5.68359 21.937 5.68359C20.0737 5.68359 18.5151 5.70703 18.48 5.73047Z" fill="black"/>
<path d="M18.4273 7.29492C18.2574 7.45898 18.2457 7.54102 18.3746 7.72266L18.4625 7.85156H22.2301C25.8043 7.85156 26.0035 7.8457 26.0914 7.74609C26.232 7.59375 26.2144 7.34766 26.0621 7.24219C25.9449 7.16016 25.4879 7.14844 22.2476 7.14844H18.568L18.4273 7.29492Z" fill="black"/>
<path d="M18.4273 8.75977C18.2574 8.92383 18.2457 9.00586 18.3746 9.1875L18.4625 9.31641H20.9117C23.0211 9.31641 23.3726 9.30469 23.4371 9.22852C23.5543 9.08789 23.525 8.83594 23.3785 8.71875C23.2555 8.61914 23.0797 8.61328 20.9058 8.61328H18.568L18.4273 8.75977Z" fill="black"/>
<path d="M6.67934 9.82617C5.99966 9.86719 5.36098 9.97266 4.98598 10.1133C3.91372 10.5176 3.10512 11.3613 2.7477 12.4512C2.6188 12.8437 2.61294 12.9492 2.5895 15.2168C2.57192 17.5312 2.57192 17.5723 2.68911 17.6895C2.81216 17.8125 2.81802 17.8125 9.16958 17.8125C15.4508 17.8125 15.527 17.8125 15.6442 17.6953C15.7555 17.584 15.7614 17.502 15.7614 15.334C15.7614 13.2891 15.7497 13.043 15.6442 12.6328C15.486 12.0117 15.2165 11.5312 14.7594 11.0449C14.0387 10.2891 13.2536 9.94922 11.9762 9.84375C11.3141 9.79101 7.51723 9.7793 6.67934 9.82617ZM8.08559 10.7754C8.17934 10.9746 8.20864 11.127 8.1852 11.2617C8.15005 11.5078 7.96255 12.1465 7.93911 12.1172C7.92739 12.1055 7.64028 11.7539 7.30044 11.3379L6.6852 10.5762L6.8727 10.541C6.97817 10.5176 7.25942 10.5 7.50552 10.4941L7.95083 10.4883L8.08559 10.7754ZM9.60903 10.5117C9.60903 10.6758 9.51528 10.7227 9.16372 10.7227C8.95864 10.7227 8.78872 10.7109 8.78872 10.6992C8.78872 10.6875 8.77114 10.6348 8.75356 10.582C8.72427 10.5 8.78286 10.4883 9.16372 10.4883C9.40981 10.4883 9.60903 10.5 9.60903 10.5117ZM11.6247 10.541C11.6481 10.582 10.7399 11.7715 10.4645 12.0586C10.4059 12.123 10.3649 12.041 10.2536 11.6309L10.1188 11.1211L10.2711 10.8047L10.4293 10.4883H11.0094C11.3317 10.4883 11.6071 10.5117 11.6247 10.541ZM6.78481 11.8066L7.73989 12.9961L7.55825 13.6641C7.4645 14.0273 7.38247 14.3789 7.38247 14.4434C7.38247 14.543 7.94497 15.2285 8.76528 16.125C9.1813 16.582 9.21645 16.5703 10.154 15.4863C10.8161 14.7305 10.9567 14.5371 10.9567 14.3906C10.9567 14.291 10.8747 13.9336 10.7809 13.6055L10.611 12.9961L11.5778 11.8008C12.111 11.1445 12.568 10.6055 12.5915 10.6055C12.7028 10.6055 13.3297 10.8457 13.5934 10.9922C13.9684 11.1973 14.5309 11.7832 14.7301 12.1758C15.0348 12.7793 15.0582 12.9844 15.0582 15.1289V17.1094H14.2379H13.4176V15.5859V14.0625L13.2711 13.9687C13.0836 13.8457 12.8551 13.9277 12.7731 14.1562C12.7379 14.2383 12.7145 14.9355 12.7145 15.709V17.1094H9.16958H5.62466V15.6328C5.62466 14.1973 5.6188 14.1562 5.49575 14.0215C5.34341 13.8574 5.19106 13.8516 5.03872 14.0039C4.92739 14.1152 4.92153 14.1973 4.92153 15.6152V17.1094H4.09536H3.27505L3.29262 15.0117C3.31606 13.0254 3.32192 12.9023 3.44497 12.5742C3.77895 11.6777 4.48208 11.0039 5.37856 10.7168C5.5602 10.6582 5.74184 10.6113 5.77114 10.6113C5.8063 10.6113 6.25747 11.1504 6.78481 11.8066ZM9.86098 12.873L10.2477 14.3203L9.7438 14.8945C9.46841 15.2109 9.22817 15.4805 9.20473 15.498C9.14614 15.5332 8.14419 14.3789 8.14419 14.2734C8.14419 14.1973 8.8063 11.6777 8.87661 11.4961C8.89419 11.4551 9.01137 11.4258 9.18716 11.4258H9.47427L9.86098 12.873Z" fill="black"/>
<path d="M18.3979 17.2266C18.3335 17.291 18.2808 17.373 18.2808 17.4082C18.2808 17.4961 18.4038 17.7188 18.48 17.7656C18.5151 17.7891 19.6167 17.8125 20.9233 17.8125C23.1147 17.8125 23.3081 17.8066 23.396 17.707C23.5425 17.543 23.5483 17.3438 23.4019 17.2031C23.3257 17.1211 23.0151 17.1094 20.9116 17.1094C18.5913 17.1094 18.5093 17.1152 18.3979 17.2266Z" fill="black"/>
<path d="M18.439 18.6445C18.275 18.7734 18.2515 19.0137 18.3921 19.1543C18.5152 19.2773 18.5386 19.2773 22.2535 19.2773C25.8043 19.2773 26.0035 19.2715 26.0914 19.1719C26.232 19.0195 26.2144 18.7734 26.0621 18.668C25.9449 18.5859 25.482 18.5742 22.2359 18.5742C19.3648 18.5742 18.5152 18.5918 18.439 18.6445Z" fill="black"/>
<path d="M18.4038 20.1913C18.2515 20.3846 18.2515 20.4784 18.398 20.6249C18.5151 20.7421 18.5913 20.7421 21.937 20.7421C25.7046 20.7421 25.5464 20.7596 25.5464 20.3905C25.5464 20.0331 25.6284 20.0389 21.9077 20.0389H18.521L18.4038 20.1913Z" fill="black"/>
<path d="M18.4273 21.6503C18.2574 21.8143 18.2457 21.8964 18.3746 22.078L18.4625 22.2069H22.441C26.8121 22.2069 26.6012 22.2245 26.6012 21.8553C26.6012 21.4921 26.7359 21.5038 22.4527 21.5038H18.568L18.4273 21.6503Z" fill="black"/>
</g>
<defs>
<clipPath id="clip0_440_191">
<rect width="30" height="30" fill="white"/>
</clipPath>
</defs>
</svg>
