<svg width="30" height="30" viewBox="0 0 30 30" fill="none" xmlns="http://www.w3.org/2000/svg">
<g clip-path="url(#clip0_440_554)">
<path d="M19.1542 0.556641C18.5389 0.673828 17.8007 0.949219 17.2557 1.26562C16.7987 1.53516 15.8436 2.39648 15.662 2.69531L15.5741 2.85352L15.1053 2.61328L14.6366 2.37305H8.44324H2.24988L1.80457 2.58984C1.27136 2.85352 0.943237 3.19336 0.685425 3.73828L0.497925 4.13086V15.9434V27.75L0.714722 28.1953C0.978394 28.7285 1.31824 29.0566 1.86316 29.3145L2.25574 29.502H8.43738H14.619L15.0116 29.3145C15.5565 29.0566 15.8964 28.7285 16.16 28.1953L16.3768 27.75L16.3944 19.7344L16.4061 11.7188H19.9218H23.4374V13.125V14.5312H21.4686C20.0917 14.5312 19.4237 14.5547 19.2538 14.6016C18.9315 14.6953 18.4452 15.1816 18.3514 15.5039C18.2577 15.8262 18.2577 17.9531 18.3514 18.2285C18.3866 18.3398 18.4686 18.498 18.5272 18.5918C18.6385 18.75 18.6385 18.75 18.5272 18.9141C18.3104 19.2188 18.2811 19.4414 18.2811 20.625C18.2811 21.8086 18.3104 22.0312 18.5272 22.3359C18.6385 22.5 18.6385 22.5 18.5272 22.6582C18.4686 22.752 18.3866 22.9102 18.3514 23.0215C18.2577 23.2969 18.2577 25.4238 18.3514 25.7461C18.4452 26.0684 18.9315 26.5547 19.2538 26.6484C19.5995 26.748 28.2128 26.748 28.5585 26.6484C28.8807 26.5547 29.3671 26.0684 29.4608 25.7461C29.5077 25.5938 29.5311 25.0781 29.5311 24.334C29.5311 23.1621 29.5311 23.1621 29.3671 22.8281L29.1971 22.5L29.3671 22.1719L29.5311 21.8379V20.625V19.4121L29.3671 19.0781L29.1971 18.75L29.3671 18.4219C29.5311 18.0879 29.5311 18.0879 29.5311 16.916C29.5311 16.1836 29.5077 15.6621 29.4608 15.5156C29.4257 15.3867 29.2792 15.1523 29.1385 15C28.7284 14.543 28.6639 14.5312 26.3553 14.5312H24.3749V13.1309V11.7305L25.6522 11.707C26.8358 11.6836 26.953 11.6719 27.3104 11.5371C27.8671 11.3203 28.201 11.1094 28.5702 10.7402C29.8417 9.44531 29.8358 7.41797 28.5643 6.13477C27.9139 5.47852 26.994 5.12109 26.08 5.16797L25.705 5.18555L25.5936 4.72266C25.1307 2.75977 23.4667 1.11328 21.4393 0.615234C20.9003 0.480469 19.705 0.451172 19.1542 0.556641ZM20.9882 1.48828C23.1561 1.91016 24.6854 3.65039 24.826 5.87109C24.8436 6.1875 24.8671 6.44531 24.8729 6.44531C24.8846 6.44531 25.0721 6.375 25.2889 6.28711C25.6229 6.1582 25.787 6.12891 26.2499 6.12891C26.7596 6.12305 26.8417 6.14062 27.1991 6.31055C27.744 6.56836 28.0839 6.89648 28.3475 7.42969C28.5526 7.85156 28.5643 7.9043 28.5643 8.43164C28.5643 8.94141 28.5468 9.0293 28.3768 9.38672C28.119 9.93164 27.7909 10.2715 27.2577 10.5352L26.8124 10.752H20.6249H14.4374L13.9921 10.5352C13.4589 10.2715 13.1307 9.93164 12.8729 9.38672C12.703 9.0293 12.6854 8.94141 12.6854 8.43164C12.6854 7.9043 12.6971 7.85156 12.9081 7.42969C13.3358 6.55664 14.0917 6.09961 15.0936 6.09375H15.451L15.4921 5.69531C15.621 4.40625 16.2303 3.24023 17.1854 2.46094C17.7714 1.98047 18.7499 1.54688 19.4823 1.44727C19.8866 1.39453 20.5839 1.41211 20.9882 1.48828ZM14.5897 3.4043C15.0702 3.62109 15.0643 3.60938 14.8475 4.29492C14.7421 4.62305 14.6366 4.96289 14.619 5.05078C14.5956 5.17383 14.5546 5.21484 14.4491 5.21484C14.1151 5.21484 13.3417 5.56055 12.955 5.88281L12.703 6.09375H7.05457H1.40613V5.29688C1.40613 4.83984 1.43542 4.39453 1.47644 4.25391C1.56433 3.95508 2.05652 3.45117 2.34363 3.35742C2.48425 3.31055 4.31824 3.29297 8.43738 3.28711C14.2382 3.28125 14.3319 3.28711 14.5897 3.4043ZM12.0116 7.04883C12.0116 7.06055 11.9589 7.22461 11.8944 7.41797C11.3729 8.92383 12.1112 10.6699 13.5585 11.3672C14.08 11.6133 14.5311 11.7188 15.0995 11.7188H15.4686V18.2812V24.8438H8.43738H1.40613V15.9375V7.03125H6.70886C9.62683 7.03125 12.0116 7.04297 12.0116 7.04883ZM28.4471 15.6152C28.5936 15.7559 28.5936 15.7676 28.5936 16.875C28.5936 17.9824 28.5936 17.9941 28.4471 18.1348L28.3065 18.2812H23.9061H19.5057L19.3651 18.1348C19.2186 17.9941 19.2186 17.9824 19.2186 16.875C19.2186 15.7676 19.2186 15.7559 19.3651 15.6152L19.5057 15.4688H23.9061H28.3065L28.4471 15.6152ZM28.4471 19.3652C28.5936 19.5059 28.5936 19.5176 28.5936 20.625C28.5936 21.7324 28.5936 21.7441 28.4471 21.8848L28.3065 22.0312H23.9061H19.5057L19.3651 21.8848C19.2186 21.7441 19.2186 21.7324 19.2186 20.625C19.2186 19.5176 19.2186 19.5059 19.3651 19.3652L19.5057 19.2188H23.9061H28.3065L28.4471 19.3652ZM28.4471 23.1152C28.5936 23.2559 28.5936 23.2676 28.5936 24.375C28.5936 25.4824 28.5936 25.4941 28.4471 25.6348L28.3065 25.7812H23.9061H19.5057L19.3651 25.6348C19.2186 25.4941 19.2186 25.4824 19.2186 24.375C19.2186 23.2676 19.2186 23.2559 19.3651 23.1152L19.5057 22.9688H23.9061H28.3065L28.4471 23.1152ZM15.4686 26.5781C15.4686 27.0352 15.4393 27.4805 15.3983 27.6211C15.3046 27.9434 14.8182 28.4297 14.496 28.5234C14.1444 28.623 2.73035 28.623 2.37878 28.5234C2.05652 28.4297 1.57019 27.9434 1.47644 27.6211C1.43542 27.4805 1.40613 27.0352 1.40613 26.5781V25.7812H8.43738H15.4686V26.5781Z" fill="black"/>
<path d="M20.156 2.80078V3.25781L20.572 3.32227C21.7791 3.50977 22.74 4.47656 22.9333 5.68945L22.9919 6.09375H23.4607H23.9236L23.8826 5.71289C23.7537 4.47656 22.9626 3.32227 21.8552 2.76562C21.3748 2.52539 20.7361 2.34961 20.3494 2.34375H20.156V2.80078Z" fill="black"/>
<path d="M16.4059 7.10742C16.1188 7.20117 15.6266 7.70508 15.5388 8.00391C15.3747 8.55469 15.4919 8.99414 15.9079 9.4043C16.2067 9.70898 16.5056 9.84375 16.8747 9.84375C17.2438 9.84375 17.5427 9.70898 17.8415 9.4043C18.4157 8.83594 18.4333 8.10352 17.8884 7.5C17.5075 7.07812 16.9626 6.93164 16.4059 7.10742ZM17.197 8.11523C17.2907 8.20312 17.3434 8.32617 17.3434 8.4375C17.3434 8.54883 17.2907 8.67188 17.197 8.75977C17.1091 8.85352 16.986 8.90625 16.8747 8.90625C16.7634 8.90625 16.6403 8.85352 16.5524 8.75977C16.4587 8.67188 16.4059 8.54883 16.4059 8.4375C16.4059 8.32617 16.4587 8.20312 16.5524 8.11523C16.6403 8.02148 16.7634 7.96875 16.8747 7.96875C16.986 7.96875 17.1091 8.02148 17.197 8.11523Z" fill="black"/>
<path d="M20.1559 7.10742C19.8688 7.20117 19.3766 7.70508 19.2888 8.00391C19.1247 8.55469 19.2419 8.99414 19.6579 9.4043C19.9567 9.70898 20.2556 9.84375 20.6247 9.84375C20.9938 9.84375 21.2927 9.70898 21.5915 9.4043C22.1657 8.83594 22.1833 8.10352 21.6384 7.5C21.2575 7.07812 20.7126 6.93164 20.1559 7.10742ZM20.947 8.11523C21.0407 8.20312 21.0934 8.32617 21.0934 8.4375C21.0934 8.54883 21.0407 8.67188 20.947 8.75977C20.8591 8.85352 20.736 8.90625 20.6247 8.90625C20.5134 8.90625 20.3903 8.85352 20.3024 8.75977C20.2087 8.67188 20.1559 8.54883 20.1559 8.4375C20.1559 8.32617 20.2087 8.20312 20.3024 8.11523C20.3903 8.02148 20.5134 7.96875 20.6247 7.96875C20.736 7.96875 20.8591 8.02148 20.947 8.11523Z" fill="black"/>
<path d="M23.9059 7.10742C23.6188 7.20117 23.1266 7.70508 23.0388 8.00391C22.8747 8.55469 22.9919 8.99414 23.4079 9.4043C23.7067 9.70898 24.0056 9.84375 24.3747 9.84375C24.7438 9.84375 25.0427 9.70898 25.3415 9.4043C25.9157 8.83594 25.9333 8.10352 25.3884 7.5C25.0075 7.07812 24.4626 6.93164 23.9059 7.10742ZM24.697 8.11523C24.7907 8.20312 24.8434 8.32617 24.8434 8.4375C24.8434 8.54883 24.7907 8.67188 24.697 8.75977C24.6091 8.85352 24.486 8.90625 24.3747 8.90625C24.2634 8.90625 24.1403 8.85352 24.0524 8.75977C23.9587 8.67188 23.9059 8.54883 23.9059 8.4375C23.9059 8.32617 23.9587 8.20312 24.0524 8.11523C24.1403 8.02148 24.2634 7.96875 24.3747 7.96875C24.486 7.96875 24.6091 8.02148 24.697 8.11523Z" fill="black"/>
<path d="M2.48993 4.36523C2.19697 4.65234 2.40204 5.15625 2.8122 5.15625C3.05243 5.15625 3.28095 4.92773 3.28095 4.6875C3.28095 4.44727 3.05243 4.21875 2.8122 4.21875C2.70087 4.21875 2.57782 4.27148 2.48993 4.36523Z" fill="black"/>
<path d="M4.36493 4.36523C4.07197 4.65234 4.27704 5.15625 4.6872 5.15625C4.92743 5.15625 5.15595 4.92773 5.15595 4.6875C5.15595 4.44727 4.92743 4.21875 4.6872 4.21875C4.57587 4.21875 4.45282 4.27148 4.36493 4.36523Z" fill="black"/>
<path d="M2.34351 9.375V10.7812H4.21851H6.09351V9.375V7.96875H4.21851H2.34351V9.375ZM5.15601 9.375V9.84375H4.21851H3.28101V9.375V8.90625H4.21851H5.15601V9.375Z" fill="black"/>
<path d="M7.03101 9.375V10.7812H8.90601H10.781V9.375V7.96875H8.90601H7.03101V9.375ZM9.84351 9.375V9.84375H8.90601H7.96851V9.375V8.90625H8.90601H9.84351V9.375Z" fill="black"/>
<path d="M7.72241 11.8066C7.36499 11.9355 7.1189 12.1641 6.91968 12.5391C6.63843 13.0664 6.3396 13.2129 5.90015 13.0371C5.56616 12.8965 5.06226 12.9082 4.72241 13.0547C4.37671 13.2129 3.83765 13.7461 3.6853 14.0977C3.53296 14.4316 3.5271 14.9355 3.66187 15.2578C3.84937 15.6973 3.69702 16.0078 3.16382 16.2949C2.57788 16.6055 2.34351 17.0391 2.34351 17.8066C2.34351 18.5977 2.60132 19.0488 3.22241 19.3652C3.6853 19.5996 3.83179 19.9277 3.66187 20.3496C3.52124 20.6836 3.53296 21.1875 3.67944 21.5273C3.83765 21.873 4.37085 22.4121 4.72241 22.5645C5.0564 22.7168 5.5603 22.7227 5.88257 22.5879C6.32202 22.4004 6.63257 22.5527 6.91968 23.0918C7.23022 23.6719 7.66968 23.9062 8.43726 23.9062C9.21069 23.9062 9.64429 23.6719 9.95483 23.0859C10.2419 22.5527 10.5525 22.4004 10.9919 22.5879C11.3142 22.7227 11.8181 22.7168 12.1521 22.5645C12.5037 22.4121 13.0369 21.8789 13.1892 21.5273C13.3416 21.1934 13.3474 20.6895 13.2126 20.3672C13.0251 19.9277 13.1775 19.6172 13.7166 19.3301C14.2966 19.0195 14.531 18.5801 14.531 17.8125C14.531 17.0449 14.2966 16.6055 13.7166 16.2949C13.1775 16.0078 13.0251 15.6973 13.2126 15.2578C13.3474 14.9355 13.3416 14.4316 13.1892 14.0977C13.0369 13.752 12.5037 13.2129 12.1521 13.0605C11.8123 12.9082 11.3552 12.8965 11.0037 13.0312C10.5349 13.2129 10.2419 13.0781 9.95483 12.5391C9.63843 11.9414 9.21069 11.7188 8.41382 11.7246C8.15601 11.7246 7.8396 11.7656 7.72241 11.8066ZM8.95288 12.75C9.02319 12.7969 9.13452 12.9668 9.20483 13.1309C9.51538 13.8457 10.4412 14.2266 11.2146 13.9512C11.5134 13.8457 11.5779 13.8398 11.7419 13.9102C11.9587 14.0039 12.2751 14.3262 12.3513 14.5312C12.3923 14.6367 12.3748 14.7656 12.2986 15C12.158 15.4336 12.1638 15.7441 12.3103 16.1367C12.4802 16.5703 12.7615 16.8867 13.1189 17.0449C13.5115 17.2148 13.5935 17.3438 13.5935 17.8125C13.5935 18.2812 13.5115 18.4102 13.1189 18.5801C12.7615 18.7383 12.4802 19.0547 12.3103 19.4883C12.1638 19.8809 12.158 20.1914 12.2986 20.625C12.4275 21.0059 12.3923 21.1406 12.0876 21.457C11.7888 21.7617 11.6423 21.8027 11.2498 21.6738C10.8162 21.5332 10.5056 21.5391 10.113 21.6855C9.67944 21.8555 9.36304 22.1367 9.20483 22.4941C9.03491 22.8867 8.90601 22.9688 8.43726 22.9688C7.96851 22.9688 7.8396 22.8867 7.66968 22.4941C7.51147 22.1367 7.19507 21.8555 6.76147 21.6855C6.3689 21.5391 6.05835 21.5332 5.62476 21.6738C5.39038 21.75 5.26147 21.7676 5.15601 21.7266C4.95093 21.6504 4.62866 21.334 4.53491 21.1172C4.4646 20.9531 4.47046 20.8887 4.57007 20.6016C4.72241 20.1855 4.71655 19.8926 4.56421 19.4883C4.39429 19.0547 4.11304 18.7383 3.75562 18.5801C3.36304 18.4102 3.28101 18.2812 3.28101 17.8125C3.28101 17.3555 3.36304 17.2148 3.70874 17.0625C4.07788 16.8984 4.31226 16.6699 4.48218 16.3066C4.69897 15.8496 4.72827 15.4629 4.57593 15.0352C4.47046 14.7363 4.4646 14.6719 4.53491 14.5078C4.62866 14.2852 4.95093 13.9746 5.16772 13.8926C5.28491 13.8457 5.39624 13.8633 5.64819 13.9512C6.06421 14.0977 6.35718 14.0918 6.75562 13.9395C7.19507 13.7695 7.4646 13.5352 7.6521 13.1484C7.73999 12.9727 7.86304 12.791 7.93335 12.7441C8.09741 12.6211 8.7771 12.627 8.95288 12.75Z" fill="black"/>
<path d="M7.76336 14.6015C7.23602 14.7011 6.56805 15.0703 6.1286 15.5039C5.12665 16.5117 4.88055 17.9648 5.50165 19.2421C6.48016 21.2636 9.18719 21.7089 10.7575 20.1152C12.029 18.8203 12.0231 16.7929 10.7516 15.5097C9.97821 14.7246 8.87665 14.3906 7.76336 14.6015ZM9.39813 15.6914C9.93133 15.9375 10.2712 16.2773 10.5348 16.8046C10.7399 17.2265 10.7516 17.2792 10.7516 17.8125C10.7516 18.3457 10.7399 18.3984 10.5348 18.8203C10.2712 19.3535 9.93133 19.6816 9.38641 19.9394C9.02899 20.1093 8.9411 20.1269 8.43719 20.1269C7.93329 20.1269 7.8454 20.1093 7.48797 19.9394C6.94305 19.6816 6.60321 19.3535 6.33954 18.8203C6.13446 18.3984 6.12274 18.3457 6.12274 17.8183C6.12274 17.3085 6.14032 17.2207 6.31024 16.8632C6.54461 16.3652 6.8786 16.0019 7.31805 15.7734C7.77508 15.5273 8.0329 15.4687 8.5661 15.4921C8.92352 15.5097 9.10516 15.5566 9.39813 15.6914Z" fill="black"/>
<path d="M7.96844 16.4824C7.68133 16.5762 7.18914 17.0801 7.10125 17.3789C6.93719 17.9297 7.05438 18.3691 7.47039 18.7793C8.06219 19.377 8.81219 19.377 9.40399 18.7793C9.97821 18.2109 9.99579 17.4785 9.45086 16.875C9.07 16.4531 8.52508 16.3066 7.96844 16.4824ZM8.75946 17.4902C9.05243 17.7773 8.84735 18.2812 8.43719 18.2812C8.32586 18.2812 8.20282 18.2285 8.11493 18.1348C8.02118 18.0469 7.96844 17.9238 7.96844 17.8125C7.96844 17.7012 8.02118 17.5781 8.11493 17.4902C8.20282 17.3965 8.32586 17.3438 8.43719 17.3438C8.54852 17.3438 8.67157 17.3965 8.75946 17.4902Z" fill="black"/>
<path d="M20.156 16.875V17.3438H20.6248H21.0935V16.875V16.4062H20.6248H20.156V16.875Z" fill="black"/>
<path d="M22.031 16.875V17.3438H22.4998H22.9685V16.875V16.4062H22.4998H22.031V16.875Z" fill="black"/>
<path d="M24.8435 20.625V21.0938H25.3123H25.781V20.625V20.1562H25.3123H24.8435V20.625Z" fill="black"/>
<path d="M26.7185 20.625V21.0938H27.1873H27.656V20.625V20.1562H27.1873H26.7185V20.625Z" fill="black"/>
<path d="M20.156 24.375V24.8438H20.6248H21.0935V24.375V23.9062H20.6248H20.156V24.375Z" fill="black"/>
<path d="M22.031 24.375V24.8438H22.4998H22.9685V24.375V23.9062H22.4998H22.031V24.375Z" fill="black"/>
<path d="M6.56226 27.1875V27.6562H8.43726H10.3123V27.1875V26.7188H8.43726H6.56226V27.1875Z" fill="black"/>
</g>
<defs>
<clipPath id="clip0_440_554">
<rect width="30" height="30" fill="white"/>
</clipPath>
</defs>
</svg>
